<?xml version="1.0" encoding="utf-8"?>
<!-- Generator: Adobe Illustrator 24.0.1, SVG Export Plug-In . SVG Version: 6.00 Build 0)  -->
<svg version="1.1" id="Capa_1" xmlns="http://www.w3.org/2000/svg" xmlns:xlink="http://www.w3.org/1999/xlink" x="0px" y="0px"
	 viewBox="0 0 276.73 267.99" style="enable-background:new 0 0 276.73 267.99;" xml:space="preserve">
<style type="text/css">
	.st0{fill:#FFFFFF;}
</style>
<g>
	<path class="st0" d="M31.13,111.48c1.13-18.71,0.72-37.44,6.78-52.34c5.95-14.66,18.16-25.61,44.21-29.21
		c29.26-4.04,59-5.76,88.68-5.12c1.39,0.03,2.79,0.08,4.18,0.14c4.91-0.11,9.47,0.3,13.68,1.17c12.89,1.75,25.25,5.56,35,13.36
		c31.07,24.85,31.91,109.3,4.47,142c-20.29,28.83-47.55,53.66-80.1,73.13c-3,1.8-6.18-1.3-5.59-3.75c4.01-16.64,6-33.5,6.03-50.42
		c-23.24-1.11-46.39-3.65-69.2-7.62C32.34,184.65,29.13,144.62,31.13,111.48z"/>
</g>
</svg>
