<svg width="524" height="523" viewBox="0 0 524 523" fill="none" xmlns="http://www.w3.org/2000/svg">
<g filter="url(#filter0_d_2198_8349)">
<path d="M85.2096 259.502C85.9627 227.765 84.2117 196.12 93.5171 170.449C102.754 145.25 122.696 125.924 166.522 118.134C215.679 109.426 265.867 104.592 316.088 103.772C318.471 103.714 320.81 103.732 323.149 103.75C331.431 103.205 339.138 103.658 346.323 104.836C368.207 106.917 389.313 112.648 406.272 125.206C460.255 165.286 466.738 308.164 422.311 365.298C389.695 415.42 345.136 459.159 291.271 494.246C286.311 497.53 280.75 492.475 281.565 488.233C287.351 459.812 289.7 431.149 288.755 402.53C249.435 402.164 210.106 399.334 171.363 394.076C91.5933 383.265 83.7888 315.749 85.2096 259.502Z" fill="black"/>
</g>
<defs>
<filter id="filter0_d_2198_8349" x="85.0664" y="103.521" width="380.613" height="402.779" filterUnits="userSpaceOnUse" color-interpolation-filters="sRGB">
<feFlood flood-opacity="0" result="BackgroundImageFix"/>
<feColorMatrix in="SourceAlpha" type="matrix" values="0 0 0 0 0 0 0 0 0 0 0 0 0 0 0 0 0 0 127 0" result="hardAlpha"/>
<feOffset dx="10" dy="7"/>
<feGaussianBlur stdDeviation="2"/>
<feComposite in2="hardAlpha" operator="out"/>
<feColorMatrix type="matrix" values="0 0 0 0 0 0 0 0 0 0 0 0 0 0 0 0 0 0 0.25 0"/>
<feBlend mode="normal" in2="BackgroundImageFix" result="effect1_dropShadow_2198_8349"/>
<feBlend mode="normal" in="SourceGraphic" in2="effect1_dropShadow_2198_8349" result="shape"/>
</filter>
</defs>
</svg>
