<svg width="207" height="218" viewBox="0 0 207 218" fill="none" xmlns="http://www.w3.org/2000/svg">
<g opacity="0.5">
<path d="M85.3585 35.779C78.7558 30.282 67.6436 30.282 60.7389 27.6418C53.9421 25.0448 55.2799 25.5425 45.7859 33.2686C35.1268 41.9469 21.231 45.6909 11.996 55.9707C11.5645 56.4468 11.1329 56.9446 10.7014 57.4423C9.10468 59.0871 7.78845 60.7535 6.73117 62.4632C3.21409 67.3975 0.560099 72.7863 0.0638239 78.5646C-1.51131 96.9383 26.4096 123.796 46.0664 124.77C74.9798 128.297 110.151 105.66 109.007 105.941C109.007 105.941 110.021 103.994 106.806 104.729C90.8175 107.759 79.8779 104.448 77.0081 101.115C84.0207 92.8697 91.2491 86.7668 97.1828 77.7638C109.417 59.2169 97.0749 45.5178 85.3585 35.779Z" fill="#DADADA"/>
</g>
<path d="M87.8362 36.1051C81.7082 30.3484 76.0766 24.1156 69.5387 21.1074C63.1087 18.1425 55.794 18.3157 46.2785 25.1328C35.5978 32.7723 25.4565 41.3424 16.0704 50.6483C15.6389 51.0811 15.1857 51.5356 14.7542 51.9685C13.1359 53.4401 11.7982 54.9766 10.6977 56.5348C7.07275 61.0579 4.24613 66.0788 3.51251 71.6191C1.13902 89.257 26.859 117.045 45.7822 119.296C73.5521 124.663 109.111 105.293 107.989 105.467C108.788 103.714 107.32 104.32 105.939 104.493C92.13 106.116 82.5066 105.51 78.3638 100.467C85.5274 92.9794 91.2022 85.6645 97.3517 77.3758C109.974 60.3221 98.6895 46.2983 87.8362 36.1051Z" fill="#3EC0F0"/>
<path d="M157.113 93.3906C236.366 104.969 202.619 192.012 181.258 200.755C169.477 199.694 131.501 133.146 157.113 93.3906Z" fill="black"/>
<path d="M134.203 96.335L115.064 104.689C115.064 104.689 91.6959 174.137 141.043 217.16C160.247 211.101 160.247 211.101 160.247 211.101C115.258 163.532 134.203 96.335 134.203 96.335Z" fill="black"/>
<path d="M95.7075 121.244C95.7075 121.244 82.7181 165.545 116.508 213.611L96.5274 206.123L81.4881 182.23L65.1758 179.071L75.4465 167.709L82.5023 149.205L95.7075 121.244Z" fill="black"/>
<path d="M47.3557 72.1593C43.6444 65.3638 39.4153 58.893 38.2501 52.3355C37.1281 45.8863 38.9838 39.3722 47.291 32.3819C56.6123 24.5477 66.6242 17.4059 77.1322 11.1082C77.6285 10.8052 78.1248 10.5239 78.6211 10.2425C80.3041 9.11715 81.9871 8.27313 83.6486 7.64552C88.525 5.41643 93.682 4.053 98.7958 4.63733C115.087 6.52015 133.88 35.9095 131.464 53.396C130.687 67.9608 126.609 82.6339 119.51 96.6144C118.863 97.9129 117.072 97.5233 116.726 96.5278C114.482 89.8189 111.483 83.4779 107.793 77.5481C99.4431 82.266 90.7906 86.4644 81.9655 90.0786C63.7976 97.5233 53.9152 84.2137 47.3557 72.1593Z" fill="black"/>
<path d="M50.7307 67.6573C47.0194 60.8619 42.7903 54.391 41.6251 47.8336C40.5031 41.3844 42.3587 34.8702 50.666 27.88C59.9873 20.0457 69.9991 12.904 80.5072 6.60623C81.0035 6.30325 81.4998 6.0219 81.996 5.74056C83.6791 4.6152 85.3621 3.77117 87.0235 3.14356C91.9 0.914474 97.0569 -0.44895 102.171 0.135374C118.462 2.0182 137.255 31.4076 134.839 48.894C134.062 63.4589 129.984 78.1319 122.885 92.1124C122.237 93.4109 120.447 93.0214 120.101 92.0258C117.857 85.3169 114.858 78.9759 111.168 73.0461C102.818 77.764 94.1656 81.9625 85.3405 85.5766C67.1725 93.0214 57.2902 79.7117 50.7307 67.6573Z" fill="#F3E600"/>
</svg>
