<svg width="40" height="43" viewBox="0 0 40 43" fill="none" xmlns="http://www.w3.org/2000/svg">
<rect width="31.1897" height="35.6846" transform="matrix(-0.966125 0.258075 0.258075 0.966125 30.1328 0)" fill="#F3E600"/>
<g opacity="0.5">
<path d="M19.3576 9.2952C20.1018 8.24268 21.7127 7.81239 22.6113 7.16229C23.496 6.52264 23.3214 6.6466 24.9968 7.39894C26.878 8.2442 29.0373 8.24886 30.7741 9.38141C30.8551 9.43372 30.9369 9.48917 31.0187 9.54461C31.3139 9.72121 31.5692 9.9118 31.7887 10.1187C32.4896 10.6978 33.083 11.3762 33.3787 12.1946C34.3185 14.7971 31.311 19.7715 28.4993 20.6738C24.4446 22.3047 18.4696 20.3852 18.6463 20.3817C18.6463 20.3817 18.4239 20.1386 18.9184 20.1208C21.3535 19.9408 22.8111 19.0372 23.098 18.443C21.7622 17.5193 20.478 16.9145 19.2693 15.8392C16.7776 13.6244 18.0363 11.1606 19.3576 9.2952Z" fill="#DADADA"/>
</g>
<path d="M19.0152 9.43888C19.6806 8.3671 20.2556 7.24552 21.0868 6.55629C21.9041 5.87751 22.9712 5.61937 24.6145 6.23911C26.4586 6.93295 28.2605 7.78258 29.9815 8.76812C30.0608 8.81415 30.1441 8.86248 30.2234 8.90852C30.515 9.05918 30.7684 9.23012 30.9883 9.41339C31.6889 9.92869 32.2931 10.5471 32.6139 11.3218C33.641 13.7867 30.9886 18.8107 28.3327 19.8698C24.515 21.7231 18.6103 20.2923 18.7796 20.2739C18.596 20.0507 18.8322 20.0817 19.0391 20.0534C21.1037 19.7539 22.4753 19.2934 22.8806 18.402C21.5522 17.594 20.4463 16.7534 19.2339 15.7899C16.7438 13.8066 17.8366 11.3368 19.0152 9.43888Z" fill="#3EC0F0"/>
<path d="M11.1888 20.4236C0.148582 25.1709 8.41102 36.4818 11.8461 36.9221C13.5129 36.3122 16.4409 25.1948 11.1888 20.4236Z" fill="black"/>
<path d="M14.6253 19.964L17.7232 20.4338C17.7232 20.4338 23.7998 29.5962 18.3124 37.7437C15.294 37.6089 15.294 37.6089 15.294 37.6089C19.9736 28.9713 14.6253 19.964 14.6253 19.964Z" fill="black"/>
<path d="M21.1698 22.0836C21.1698 22.0836 24.7682 28.0024 21.7312 36.2785L24.3377 34.4194L25.5926 30.3736L27.8349 29.2839L25.9061 28.0346L24.1668 25.6255L21.1698 22.0836Z" fill="black"/>
<path d="M26.2764 13.0975C26.5512 11.9687 26.9137 10.8669 26.8287 9.87125C26.7416 8.89292 26.2204 8.02049 24.7455 7.32885C23.0909 6.55414 21.363 5.90655 19.5959 5.40053C19.5123 5.37583 19.4294 5.35426 19.3466 5.33269C19.059 5.23473 18.7824 5.17755 18.5172 5.15091C17.724 5.01661 16.9237 5.01866 16.205 5.30138C13.9164 6.20513 12.3301 11.1932 13.3575 13.6344C14.0341 15.7157 15.1935 17.6848 16.7639 19.4365C16.908 19.5996 17.1525 19.4738 17.164 19.3162C17.2295 18.2567 17.4187 17.2214 17.724 16.2189C19.1171 16.5795 20.534 16.8531 21.9532 17.0353C24.8751 17.4109 25.7923 15.0989 26.2764 13.0975Z" fill="black"/>
<path d="M25.6123 12.575C25.8872 11.4462 26.2497 10.3445 26.1646 9.34879C26.0776 8.37046 25.5563 7.49802 24.0814 6.80639C22.4268 6.03168 20.699 5.38409 18.9319 4.87807C18.8482 4.85336 18.7654 4.8318 18.6825 4.81023C18.395 4.71227 18.1183 4.65509 17.8532 4.62845C17.06 4.49415 16.2596 4.49619 15.541 4.77892C13.2523 5.68267 11.666 10.6707 12.6935 13.112C13.3701 15.1932 14.5294 17.1623 16.0998 18.914C16.2439 19.0772 16.4884 18.9514 16.4999 18.7937C16.5655 17.7343 16.7547 16.6989 17.0599 15.6965C18.4531 16.057 19.8699 16.3306 21.2892 16.5128C24.2111 16.8885 25.1282 14.5764 25.6123 12.575Z" fill="white"/>
</svg>
