<svg width="185" height="186" viewBox="0 0 185 186" fill="none" xmlns="http://www.w3.org/2000/svg">
<g opacity="0.5">
<path d="M151.87 105.691C150.728 104.972 149.069 105.164 147.958 104.88C146.846 104.595 147.069 104.652 145.799 106.023C144.394 107.548 142.342 108.349 141.17 110.076C141.103 110.154 141.036 110.231 141.028 110.334C140.844 110.609 140.66 110.884 140.536 111.183C140.129 111.998 139.841 112.862 139.878 113.79C140.066 116.641 144.934 120.234 147.931 120.034C152.413 120.063 157.229 115.981 157.102 116.034C157.102 116.034 157.226 115.734 156.742 115.885C154.365 116.622 152.64 116.295 152.115 115.867C152.975 114.468 153.934 113.425 154.657 111.933C156.068 108.866 153.855 107.003 151.87 105.691Z" fill="#DADADA"/>
</g>
<path d="M152.218 105.694C151.161 104.941 150.153 104.068 149.066 103.724C148.022 103.362 146.9 103.53 145.619 104.755C144.145 106.111 142.825 107.602 141.601 109.202C141.533 109.279 141.466 109.357 141.441 109.417C141.24 109.649 141.056 109.924 140.914 110.181C140.471 110.911 140.124 111.75 140.186 112.618C140.219 115.335 144.782 119.154 147.722 119.176C152.081 119.504 157.047 115.907 156.878 115.977C156.959 115.695 156.765 115.825 156.536 115.871C154.463 116.382 152.998 116.443 152.265 115.754C153.178 114.482 153.862 113.255 154.637 111.891C156.179 109.018 154.135 107.084 152.218 105.694Z" fill="#3EC0F0"/>
<path d="M163.8 113.257C176.221 113.619 173.026 127.605 169.963 129.321C168.088 129.354 160.762 119.829 163.8 113.257Z" fill="black"/>
<path d="M160.445 114.152L157.696 115.789C157.696 115.789 155.693 126.896 164.277 132.623C167.082 131.361 167.082 131.361 167.082 131.361C159.068 124.852 160.445 114.152 160.445 114.152Z" fill="black"/>
<path d="M155.242 118.742C155.242 118.742 154.289 125.79 160.534 132.586L157.32 131.783L154.475 128.395L151.916 128.214L153.247 126.272L153.909 123.316L155.242 118.742Z" fill="black"/>
<path d="M146.867 111.837C146.156 110.841 145.335 109.94 145.033 108.972C144.732 108.005 144.847 106.964 145.94 105.766C147.167 104.414 148.532 103.153 149.993 102.001C150.06 101.924 150.145 101.889 150.187 101.871C150.406 101.681 150.643 101.533 150.88 101.385C151.59 100.942 152.311 100.643 153.112 100.659C155.643 100.652 159.153 104.807 159.187 107.524C159.419 109.762 159.132 112.065 158.333 114.333C158.276 114.555 157.969 114.533 157.899 114.364C157.393 113.382 156.819 112.478 156.118 111.626C154.945 112.51 153.736 113.309 152.475 113.981C149.944 115.427 148.141 113.593 146.867 111.837Z" fill="black"/>
<path d="M147.249 111.081C146.538 110.085 145.718 109.184 145.416 108.216C145.115 107.249 145.23 106.208 146.323 105.011C147.55 103.658 148.915 102.397 150.375 101.245C150.443 101.168 150.527 101.133 150.57 101.115C150.789 100.925 151.026 100.777 151.263 100.629C151.973 100.186 152.694 99.8872 153.495 99.9026C156.026 99.8963 159.536 104.052 159.57 106.768C159.802 109.006 159.515 111.31 158.716 113.577C158.659 113.799 158.352 113.777 158.282 113.608C157.775 112.626 157.202 111.722 156.501 110.871C155.328 111.754 154.119 112.553 152.857 113.225C150.345 114.713 148.524 112.837 147.249 111.081Z" fill="white"/>
<path d="M118.091 29.2357C113.085 27.5945 108.118 25.9775 102.855 25.3646C90.5934 23.8745 79.0621 26.2896 67.594 30.0928C55.4589 34.1849 46.9115 43.0873 38.9736 52.5828C30.435 62.7858 26.1665 75.4694 24.2789 88.6013C22.183 102.683 26.2465 116.368 34.0493 128.482C37.3955 133.682 41.0435 138.746 46.0255 142.531C52.1361 147.122 58.9258 151.054 66.0445 153.84C78.1424 158.575 91.8975 160.018 104.57 158.039C121.144 155.453 134.601 144.841 146.061 133.424" stroke="#1D1D1B" stroke-width="2" stroke-miterlimit="10" stroke-linecap="round" stroke-dasharray="6.06 6.06"/>
<path d="M92.6027 138.627C118.198 138.627 138.948 117.766 138.948 92.0322C138.948 66.2986 118.198 45.4375 92.6027 45.4375C67.0071 45.4375 46.2578 66.2986 46.2578 92.0322C46.2578 117.766 67.0071 138.627 92.6027 138.627Z" fill="black"/>
</svg>
