<svg width="38" height="37" viewBox="0 0 38 37" fill="none" xmlns="http://www.w3.org/2000/svg">
<g opacity="0.5">
<path d="M30.5032 16.6032C30.1964 14.4985 28.1497 12.6604 27.3147 11.032C26.4924 9.42936 26.6565 9.74233 23.6298 9.59491C20.2311 9.43015 17.0524 7.82119 13.651 8.18695C13.4928 8.20326 13.331 8.22356 13.1691 8.24386C12.603 8.28268 12.0849 8.37188 11.6074 8.51189C10.1434 8.83893 8.76318 9.39245 7.71596 10.3746C4.38657 13.4982 5.08657 23.0634 8.54595 26.4943C13.2878 31.9267 23.5102 33.5751 23.2531 33.4377C23.2531 33.4377 23.762 33.2467 23.0482 32.8505C19.6021 30.7638 18.1349 28.3443 18.1577 27.2558C20.8132 26.8971 23.1541 26.9687 25.7362 26.292C31.0575 24.8997 31.0503 20.3349 30.5032 16.6032Z" fill="#DADADA"/>
</g>
<path d="M30.9087 17.0729C30.7323 14.999 30.726 12.9194 30.0194 11.2839C29.3256 9.67419 27.9497 8.49613 25.0694 8.17773C21.8385 7.81806 18.553 7.71903 15.2849 7.88044C15.1339 7.88877 14.9752 7.89753 14.8241 7.90587C14.2827 7.90923 13.7821 7.97095 13.3217 8.07592C11.9058 8.30939 10.5547 8.76659 9.50312 9.66566C6.14839 12.5217 6.28909 21.8942 9.40214 25.4389C13.6291 31.021 23.3825 33.3355 23.1472 33.1818C23.5842 32.991 23.2137 32.8599 22.9307 32.6633C20.1188 30.678 18.4465 28.9746 18.5176 27.3605C21.0757 27.1663 23.3308 26.7577 25.8346 26.2483C30.9804 25.1952 31.2216 20.7456 30.9087 17.0729Z" fill="#3EC0F0"/>
</svg>
