<svg width="497" height="497" viewBox="0 0 497 497" fill="none" xmlns="http://www.w3.org/2000/svg">
<circle cx="248.5" cy="248.5" r="248.5" fill="white"/>
<path d="M73.4609 339.241C58.1429 311.194 40.6874 284.486 35.8783 257.42C31.2472 230.801 38.9063 203.915 73.1938 175.063C111.667 142.728 152.99 113.25 196.362 87.257C198.41 86.0065 200.458 84.8452 202.507 83.684C209.453 79.0392 216.4 75.5555 223.257 72.9651C243.384 63.7647 264.669 58.1372 285.776 60.549C353.015 68.3202 430.585 189.623 420.611 261.797C417.405 321.913 400.573 382.475 371.272 440.178C368.601 445.538 361.209 443.93 359.784 439.821C350.522 412.13 338.143 385.958 322.914 361.483C288.448 380.956 252.736 398.285 216.311 413.202C141.324 443.93 100.535 388.995 73.4609 339.241Z" fill="#3EC0F0"/>
<path d="M87.4061 320.669C72.0881 292.621 54.6327 265.913 49.8236 238.848C45.1925 212.229 52.8514 185.343 87.1389 156.491C125.612 124.155 166.935 94.6782 210.307 68.6847C212.355 67.4342 214.403 66.273 216.452 65.1118C223.398 60.4669 230.345 56.9832 237.202 54.3928C257.33 45.1924 278.615 39.565 299.722 41.9767C366.961 49.7479 444.531 171.051 434.556 243.225C431.35 303.34 414.518 363.902 385.218 421.606C382.546 426.965 375.154 425.357 373.729 421.249C364.467 393.558 352.088 367.386 336.859 342.911C302.393 362.384 266.681 379.713 230.256 394.63C155.269 425.357 114.48 370.423 87.4061 320.669Z" fill="#F3E600"/>
<path d="M273.874 108.713C420.694 130.162 358.176 291.413 318.603 307.61C296.778 305.646 226.426 182.362 273.874 108.713Z" fill="black"/>
<path d="M231.429 114.17L195.973 129.646C195.973 129.646 152.682 258.301 244.1 338.005C279.676 326.779 279.676 326.779 279.676 326.779C196.333 238.656 231.429 114.17 231.429 114.17Z" fill="black"/>
<path d="M160.112 160.314C160.112 160.314 136.049 242.383 198.646 331.428L161.631 317.556L133.77 273.294L103.551 267.441L122.578 246.392L135.649 212.114L160.112 160.314Z" fill="black"/>
</svg>
