<svg width="422" height="130" viewBox="0 0 422 130" fill="none" xmlns="http://www.w3.org/2000/svg">
<g opacity="0.5">
<path d="M50.7213 21.26C46.7979 17.9936 40.1949 17.9936 36.092 16.4247C32.0532 14.8816 32.8481 15.1773 27.2067 19.7683C20.8729 24.9251 12.6158 27.1498 7.12821 33.2582C6.87178 33.5411 6.61536 33.8369 6.35893 34.1327C5.41014 35.11 4.62802 36.1002 3.99976 37.1162C1.90986 40.0482 0.33282 43.2503 0.0379251 46.6839C-0.898044 57.6018 15.693 73.5608 27.3734 74.1395C44.5542 76.2357 65.4532 62.7843 64.7737 62.9515C64.7737 62.9515 65.3763 61.7941 63.4659 62.2314C53.9651 64.0317 47.4647 62.0642 45.7594 60.0838C49.9264 55.1842 54.2216 51.5577 57.7475 46.208C65.0173 35.1872 57.6834 27.0469 50.7213 21.26Z" fill="#DADADA"/>
</g>
<path d="M52.1935 21.4548C48.5522 18.0341 45.2058 14.3305 41.3209 12.543C37.5001 10.7812 33.1536 10.884 27.4993 14.9349C21.1526 19.4744 15.1265 24.5669 9.54919 30.0966C9.29276 30.3538 9.02351 30.6238 8.76708 30.881C7.80547 31.7555 7.01055 32.6685 6.35665 33.5945C4.20264 36.2822 2.52302 39.2656 2.08709 42.5577C0.676723 53.0385 15.9599 69.5505 27.2044 70.8879C43.7057 74.0771 64.8355 62.5676 64.1688 62.6705C64.6432 61.6288 63.7713 61.9889 62.9507 62.0918C54.745 63.0563 49.0266 62.6962 46.5649 59.6999C50.8216 55.2504 54.1936 50.9037 57.8478 45.9784C65.3483 35.8449 58.6427 27.5118 52.1935 21.4548Z" fill="#3EC0F0"/>
<path d="M93.3582 55.4941C140.452 62.3741 120.399 114.096 107.705 119.292C100.705 118.661 78.1391 79.1176 93.3582 55.4941Z" fill="black"/>
<path d="M79.7439 57.2441L68.3713 62.208C68.3713 62.208 54.4856 103.475 83.8083 129.04C95.2195 125.44 95.2195 125.44 95.2195 125.44C68.4866 97.1738 79.7439 57.2441 79.7439 57.2441Z" fill="black"/>
<path d="M56.869 72.0449C56.869 72.0449 49.1505 98.3689 69.2289 126.931L57.3562 122.481L48.4196 108.284L38.7266 106.406L44.8296 99.6549L49.0222 88.6598L56.869 72.0449Z" fill="black"/>
<path d="M28.1379 42.8778C25.9326 38.8399 23.4196 34.9948 22.7273 31.0983C22.0606 27.266 23.1632 23.3952 28.0995 19.2415C33.6384 14.5863 39.5875 10.3425 45.8316 6.60033C46.1265 6.42029 46.4214 6.25311 46.7163 6.08594C47.7164 5.41723 48.7165 4.91569 49.7037 4.54276C52.6014 3.2182 55.6657 2.40803 58.7044 2.75525C68.3846 3.87405 79.5522 21.3377 78.1162 31.7284C77.6546 40.383 75.2313 49.102 71.013 57.4094C70.6284 58.181 69.5642 57.9495 69.3591 57.358C68.0256 53.3714 66.2435 49.6035 64.051 46.0799C59.0891 48.8834 53.9476 51.3782 48.7036 53.5258C37.9079 57.9495 32.0357 50.0407 28.1379 42.8778Z" fill="black"/>
<path d="M30.1457 40.203C27.9404 36.165 25.4274 32.32 24.7351 28.4234C24.0684 24.5912 25.171 20.7204 30.1073 16.5667C35.6462 11.9115 41.5953 7.66772 47.8394 3.92552C48.1343 3.74549 48.4292 3.57831 48.7241 3.41113C49.7242 2.74242 50.7243 2.24089 51.7115 1.86795C54.6092 0.543395 57.6735 -0.266773 60.7122 0.0804416C70.3924 1.19924 81.56 18.6629 80.1239 29.0536C79.6624 37.7082 77.2391 46.4272 73.0208 54.7346C72.6362 55.5062 71.572 55.2747 71.3669 54.6832C70.0334 50.6966 68.2512 46.9287 66.0588 43.4051C61.0968 46.2086 55.9554 48.7034 50.7114 50.8509C39.9157 55.2747 34.0435 47.3659 30.1457 40.203Z" fill="#F3E600"/>
<path d="M158.784 89.7275C159.112 89.7275 159.364 89.827 159.555 90.0259C159.745 90.2248 159.837 90.5003 159.837 90.8522V92.6578C159.837 92.9409 159.761 93.1934 159.6 93.4152C159.448 93.6371 159.211 93.7442 158.899 93.7442C158.662 93.7442 158.372 93.7978 158.029 93.9049C157.686 94.012 157.365 94.1956 157.053 94.471C156.74 94.7388 156.481 95.0984 156.259 95.5422C156.038 95.9859 155.931 96.5597 155.931 97.2483V101.686H158.769C159.097 101.686 159.349 101.77 159.539 101.938C159.73 102.107 159.822 102.397 159.822 102.81V104.149C159.822 104.532 159.73 104.83 159.539 105.052C159.349 105.274 159.089 105.381 158.769 105.381H155.947V125.526C155.947 125.893 155.832 126.176 155.596 126.367C155.359 126.559 155.107 126.658 154.825 126.658H152.857C152.506 126.658 152.247 126.551 152.087 126.337C151.927 126.122 151.843 125.855 151.843 125.533V105.389H149.829C149.501 105.389 149.242 105.282 149.036 105.06C148.83 104.838 148.73 104.54 148.73 104.157V102.818C148.73 102.405 148.83 102.114 149.036 101.946C149.242 101.778 149.501 101.693 149.829 101.693H151.843V97.2177C151.843 96.2001 152.003 95.2361 152.316 94.3333C152.636 93.4305 153.086 92.6348 153.681 91.9539C154.276 91.273 155.001 90.7374 155.863 90.3396C156.725 89.9418 157.701 89.7275 158.784 89.7275Z" fill="black"/>
<path d="M168.647 125.716C168.647 126.336 168.334 126.65 167.716 126.65H165.535C164.871 126.65 164.543 126.336 164.543 125.716V92.6189C164.543 92.3359 164.635 92.1063 164.818 91.938C165.001 91.7697 165.222 91.6855 165.474 91.6855H167.678C167.976 91.6855 168.212 91.7774 168.387 91.961C168.563 92.1446 168.654 92.3665 168.654 92.6189V125.716H168.647Z" fill="black"/>
<path d="M193.285 123.506C192.873 124.003 192.446 124.447 192.004 124.83C191.561 125.22 191.058 125.549 190.501 125.817C189.944 126.084 189.311 126.291 188.609 126.429C187.907 126.566 187.083 126.643 186.153 126.643C184.414 126.643 182.888 126.344 181.561 125.74C180.233 125.136 179.12 124.317 178.227 123.276C177.335 122.236 176.656 121.012 176.198 119.612C175.741 118.212 175.512 116.712 175.512 115.113V100.699C175.512 100.217 175.634 99.8573 175.885 99.6125C176.13 99.3753 176.45 99.2529 176.824 99.2529H178.387C178.906 99.2529 179.242 99.36 179.394 99.5743C179.547 99.7885 179.616 100.14 179.616 100.638V115.121C179.616 115.97 179.73 116.835 179.966 117.722C180.203 118.609 180.577 119.413 181.111 120.132C181.645 120.851 182.339 121.44 183.216 121.892C184.093 122.343 185.161 122.573 186.435 122.573C187.236 122.573 188.045 122.427 188.861 122.137C189.669 121.846 190.409 121.417 191.065 120.851C191.721 120.285 192.255 119.589 192.675 118.763C193.094 117.936 193.3 116.98 193.3 115.886V100.194C193.3 99.5743 193.613 99.2606 194.231 99.2606H196.413C197.076 99.2606 197.404 99.5743 197.404 100.194V125.289C197.404 125.572 197.313 125.801 197.13 125.97C196.946 126.138 196.725 126.222 196.474 126.222H194.269C193.972 126.222 193.735 126.13 193.56 125.947C193.384 125.763 193.293 125.541 193.293 125.289V123.506H193.285Z" fill="black"/>
<path d="M222.607 120.467C222.737 120.353 222.874 120.246 223.019 120.146C223.164 120.047 223.317 120.001 223.477 120.001C223.69 120.001 223.896 120.131 224.087 120.383C224.369 120.766 224.598 121.08 224.774 121.317C224.949 121.554 225.094 121.745 225.208 121.891C225.323 122.044 225.407 122.158 225.46 122.227C225.529 122.311 225.59 122.403 225.628 122.495C225.666 122.587 225.689 122.686 225.689 122.801C225.689 122.954 225.628 123.122 225.506 123.298C225.384 123.474 225.178 123.681 224.88 123.926C224.27 124.408 223.645 124.844 222.989 125.234C222.333 125.624 221.646 125.961 220.921 126.244C220.197 126.527 219.442 126.749 218.648 126.902C217.847 127.055 217.008 127.139 216.116 127.139C214.857 127.139 213.644 126.971 212.477 126.642C211.302 126.313 210.204 125.838 209.167 125.219C208.129 124.607 207.183 123.872 206.329 123.023C205.475 122.174 204.735 121.233 204.117 120.2C203.499 119.167 203.018 118.057 202.675 116.879C202.34 115.701 202.164 114.469 202.164 113.199C202.164 111.929 202.324 110.697 202.637 109.504C202.957 108.318 203.407 107.201 203.995 106.168C204.582 105.135 205.292 104.194 206.123 103.345C206.954 102.496 207.893 101.769 208.93 101.157C209.968 100.552 211.089 100.078 212.294 99.7414C213.499 99.4125 214.773 99.2441 216.116 99.2441C217.176 99.2441 218.229 99.3665 219.266 99.6037C220.311 99.8409 221.31 100.193 222.272 100.652C223.233 101.111 224.133 101.685 224.972 102.358C225.811 103.039 226.566 103.819 227.23 104.692C228.13 105.908 228.801 107.293 229.244 108.854C229.678 110.414 229.884 112.205 229.854 114.224C229.854 114.89 229.541 115.219 228.923 115.219H206.626C206.863 116.351 207.282 117.4 207.885 118.364C208.488 119.328 209.205 120.161 210.044 120.881C210.883 121.592 211.821 122.158 212.851 122.556C213.881 122.962 214.949 123.161 216.047 123.161C216.825 123.161 217.527 123.084 218.152 122.939C218.778 122.793 219.35 122.594 219.869 122.342C220.387 122.097 220.86 121.814 221.295 121.493C221.73 121.171 222.157 120.842 222.569 120.506L222.607 120.467ZM211.005 104.76C209.929 105.48 209.006 106.39 208.228 107.492C207.45 108.586 206.924 109.795 206.642 111.111H225.78C225.628 109.932 225.262 108.869 224.69 107.905C224.118 106.941 223.4 106.122 222.539 105.441C221.677 104.76 220.708 104.232 219.625 103.858C218.541 103.483 217.428 103.291 216.268 103.291C215.353 103.291 214.445 103.414 213.545 103.651C212.66 103.896 211.806 104.263 211.005 104.76Z" fill="black"/>
<path d="M239.647 103.253C240.044 102.756 240.486 102.274 240.982 101.8C241.478 101.325 242.027 100.905 242.645 100.522C243.263 100.147 243.941 99.8412 244.689 99.6117C245.437 99.3745 246.276 99.2598 247.206 99.2598C248.945 99.2598 250.471 99.5581 251.798 100.163C253.126 100.767 254.239 101.586 255.132 102.626C256.024 103.667 256.703 104.891 257.161 106.291C257.618 107.691 257.847 109.191 257.847 110.79V125.204C257.847 125.686 257.725 126.045 257.474 126.29C257.222 126.535 256.909 126.65 256.535 126.65H254.972C254.453 126.65 254.117 126.543 253.965 126.328C253.812 126.114 253.743 125.762 253.743 125.265V110.782C253.743 109.933 253.629 109.068 253.393 108.181C253.156 107.293 252.782 106.49 252.248 105.771C251.722 105.051 251.02 104.462 250.143 104.011C249.266 103.56 248.198 103.33 246.924 103.33C246.123 103.33 245.284 103.475 244.43 103.766C243.568 104.057 242.782 104.485 242.08 105.051C241.371 105.618 240.791 106.321 240.333 107.155C239.876 107.989 239.647 108.946 239.647 110.024V125.716C239.647 126.336 239.334 126.65 238.716 126.65H236.535C235.871 126.65 235.543 126.336 235.543 125.716V100.622C235.543 100.339 235.635 100.109 235.818 99.9407C236.001 99.7724 236.222 99.6882 236.474 99.6882H238.678C238.976 99.6882 239.212 99.78 239.387 99.9636C239.563 100.147 239.654 100.369 239.654 100.622V103.253H239.647Z" fill="black"/>
<path d="M270.212 126.948C269.564 126.948 268.908 126.871 268.252 126.711C267.596 126.55 267.008 126.282 266.482 125.892C265.956 125.502 265.536 124.974 265.2 124.301C264.865 123.628 264.705 122.771 264.705 121.722V103.315H262.248C261.897 103.315 261.638 103.261 261.463 103.154C261.287 103.047 261.211 102.81 261.211 102.442V100.469C261.211 100.101 261.295 99.8718 261.463 99.78C261.63 99.6881 261.89 99.6422 262.248 99.6422H264.705V95.1206C264.705 94.8834 264.75 94.7075 264.849 94.6004C264.949 94.4932 265.116 94.4091 265.361 94.3326C265.444 94.302 265.62 94.2714 265.879 94.2408C266.139 94.2025 266.413 94.1566 266.695 94.1031C267.031 94.0495 267.397 93.9806 267.794 93.9118C268.03 93.8812 268.221 93.8965 268.366 93.9577C268.503 94.0112 268.61 94.0954 268.671 94.2102C268.732 94.3249 268.77 94.455 268.786 94.6004C268.801 94.7457 268.808 94.9064 268.808 95.0747V99.6422H271.753C272.081 99.6422 272.317 99.7111 272.462 99.8565C272.607 99.9942 272.683 100.254 272.683 100.622V102.297C272.683 102.664 272.607 102.924 272.462 103.085C272.317 103.238 272.081 103.315 271.753 103.315H268.808V121.677C268.808 122.174 268.93 122.518 269.167 122.717C269.403 122.916 269.739 123.015 270.159 123.015C270.487 123.015 270.754 123.115 270.96 123.314C271.166 123.513 271.28 123.788 271.28 124.14V125.885C271.28 126.214 271.181 126.466 270.982 126.657C270.792 126.849 270.532 126.948 270.212 126.948Z" fill="black"/>
<path d="M281.198 103.255C282.41 102.008 283.822 101.028 285.431 100.317C287.041 99.6053 288.788 99.2457 290.664 99.2457C291.923 99.2457 293.143 99.414 294.318 99.743C295.5 100.08 296.606 100.546 297.636 101.166C298.666 101.786 299.604 102.513 300.451 103.362C301.297 104.211 302.03 105.152 302.648 106.2C303.265 107.241 303.738 108.35 304.066 109.536C304.402 110.714 304.562 111.946 304.562 113.216C304.562 114.486 304.394 115.718 304.066 116.904C303.738 118.09 303.265 119.191 302.648 120.224C302.037 121.257 301.305 122.198 300.451 123.047C299.604 123.897 298.666 124.623 297.636 125.235C296.606 125.848 295.5 126.314 294.318 126.651C293.143 126.98 291.923 127.148 290.664 127.148C288.788 127.148 287.041 126.796 285.431 126.085C283.822 125.373 282.41 124.402 281.198 123.154V125.725C281.198 126.345 280.885 126.659 280.267 126.659H278.085C277.422 126.659 277.094 126.345 277.094 125.725V92.6277C277.094 92.3447 277.185 92.1151 277.368 91.9468C277.551 91.7785 277.773 91.6943 278.024 91.6943H280.229C280.526 91.6943 280.763 91.7861 280.938 91.9698C281.114 92.1534 281.205 92.3753 281.205 92.6277V103.255H281.198ZM280.984 113.208C280.984 114.555 281.236 115.825 281.747 117.034C282.258 118.235 282.944 119.291 283.822 120.194C284.699 121.096 285.721 121.823 286.888 122.359C288.063 122.894 289.314 123.162 290.656 123.162C291.984 123.162 293.227 122.894 294.394 122.359C295.561 121.823 296.576 121.096 297.445 120.194C298.315 119.291 299.001 118.235 299.497 117.034C300.001 115.833 300.252 114.555 300.252 113.208C300.252 111.892 300.001 110.622 299.497 109.406C298.994 108.189 298.315 107.118 297.445 106.193C296.576 105.267 295.561 104.525 294.394 103.974C293.227 103.423 291.984 103.148 290.656 103.148C289.314 103.148 288.063 103.423 286.888 103.974C285.713 104.525 284.691 105.267 283.822 106.193C282.944 107.118 282.258 108.189 281.747 109.406C281.236 110.622 280.984 111.892 280.984 113.208Z" fill="#3EC0F0"/>
<path d="M329.057 120.467C329.186 120.353 329.324 120.246 329.468 120.146C329.613 120.047 329.766 120.001 329.926 120.001C330.14 120.001 330.346 120.131 330.544 120.383C330.826 120.766 331.055 121.08 331.231 121.317C331.406 121.554 331.551 121.745 331.665 121.891C331.78 122.044 331.864 122.158 331.917 122.227C331.986 122.311 332.047 122.403 332.085 122.495C332.123 122.587 332.146 122.686 332.146 122.801C332.146 122.954 332.085 123.122 331.963 123.298C331.841 123.474 331.635 123.681 331.337 123.926C330.735 124.408 330.102 124.844 329.446 125.234C328.79 125.624 328.103 125.961 327.378 126.244C326.661 126.527 325.899 126.749 325.105 126.902C324.304 127.055 323.465 127.139 322.573 127.139C321.314 127.139 320.101 126.971 318.934 126.642C317.759 126.313 316.661 125.838 315.624 125.219C314.586 124.607 313.64 123.872 312.786 123.023C311.932 122.174 311.192 121.233 310.574 120.2C309.956 119.167 309.475 118.057 309.132 116.879C308.797 115.701 308.621 114.469 308.621 113.199C308.621 111.929 308.781 110.697 309.094 109.504C309.414 108.318 309.864 107.201 310.452 106.168C311.039 105.135 311.749 104.194 312.58 103.345C313.411 102.496 314.35 101.769 315.387 101.157C316.425 100.552 317.546 100.078 318.751 99.7414C319.956 99.4125 321.23 99.2441 322.573 99.2441C323.633 99.2441 324.686 99.3665 325.723 99.6037C326.761 99.8409 327.767 100.193 328.729 100.652C329.69 101.111 330.59 101.685 331.429 102.358C332.268 103.039 333.023 103.819 333.687 104.692C334.587 105.908 335.258 107.293 335.701 108.854C336.143 110.414 336.341 112.205 336.311 114.224C336.311 114.89 335.998 115.219 335.38 115.219H313.068C313.305 116.351 313.724 117.4 314.327 118.364C314.929 119.328 315.647 120.161 316.486 120.881C317.325 121.592 318.263 122.158 319.293 122.556C320.322 122.954 321.39 123.161 322.489 123.161C323.267 123.161 323.969 123.084 324.594 122.939C325.22 122.793 325.792 122.594 326.31 122.342C326.829 122.097 327.302 121.814 327.737 121.493C328.172 121.171 328.599 120.842 329.011 120.506L329.057 120.467ZM317.454 104.76C316.379 105.48 315.456 106.39 314.685 107.492C313.907 108.586 313.381 109.795 313.099 111.111H332.237C332.085 109.932 331.719 108.869 331.147 107.905C330.575 106.941 329.858 106.122 328.996 105.441C328.134 104.76 327.165 104.232 326.082 103.858C324.998 103.483 323.885 103.291 322.725 103.291C321.81 103.291 320.902 103.414 320.002 103.651C319.102 103.888 318.263 104.263 317.454 104.76Z" fill="#3EC0F0"/>
<path d="M361.127 120.467C361.257 120.353 361.394 120.246 361.539 120.146C361.684 120.047 361.836 120.001 361.996 120.001C362.21 120.001 362.416 120.131 362.614 120.383C362.897 120.766 363.125 121.08 363.301 121.317C363.476 121.554 363.621 121.745 363.736 121.891C363.85 122.044 363.934 122.158 363.987 122.227C364.056 122.311 364.117 122.403 364.155 122.495C364.193 122.587 364.216 122.686 364.216 122.801C364.216 122.954 364.155 123.122 364.033 123.298C363.911 123.474 363.705 123.681 363.408 123.926C362.805 124.408 362.172 124.844 361.516 125.234C360.86 125.624 360.173 125.961 359.449 126.244C358.732 126.527 357.969 126.749 357.176 126.902C356.375 127.055 355.536 127.139 354.643 127.139C353.384 127.139 352.172 126.971 351.005 126.642C349.83 126.313 348.731 125.838 347.694 125.219C346.657 124.607 345.711 123.872 344.856 123.023C344.002 122.174 343.262 121.233 342.644 120.2C342.026 119.167 341.546 118.057 341.202 116.879C340.867 115.701 340.691 114.469 340.691 113.199C340.691 111.929 340.852 110.697 341.164 109.504C341.485 108.318 341.935 107.201 342.522 106.168C343.109 105.135 343.819 104.194 344.65 103.345C345.482 102.496 346.42 101.769 347.457 101.157C348.495 100.552 349.616 100.078 350.821 99.7414C352.027 99.4125 353.301 99.2441 354.643 99.2441C355.703 99.2441 356.756 99.3665 357.793 99.6037C358.831 99.8409 359.838 100.193 360.799 100.652C361.76 101.111 362.66 101.685 363.499 102.358C364.338 103.039 365.093 103.819 365.757 104.692C366.657 105.908 367.328 107.293 367.771 108.854C368.213 110.414 368.412 112.205 368.381 114.224C368.381 114.89 368.068 115.219 367.451 115.219H345.139C345.375 116.351 345.795 117.4 346.397 118.364C347 119.328 347.717 120.161 348.556 120.881C349.395 121.592 350.333 122.158 351.363 122.556C352.393 122.954 353.461 123.161 354.559 123.161C355.337 123.161 356.039 123.084 356.664 122.939C357.29 122.793 357.862 122.594 358.381 122.342C358.9 122.097 359.372 121.814 359.807 121.493C360.242 121.171 360.669 120.842 361.081 120.506L361.127 120.467ZM349.525 104.76C348.449 105.48 347.526 106.39 346.756 107.492C345.978 108.586 345.451 109.795 345.169 111.111H364.308C364.155 109.932 363.789 108.869 363.217 107.905C362.645 106.941 361.928 106.122 361.066 105.441C360.204 104.76 359.235 104.232 358.152 103.858C357.069 103.483 355.955 103.291 354.796 103.291C353.88 103.291 352.973 103.414 352.072 103.651C351.172 103.888 350.333 104.263 349.525 104.76Z" fill="#3EC0F0"/>
<path d="M378.167 125.717C378.167 126.337 377.854 126.651 377.236 126.651H375.055C374.406 126.651 374.078 126.337 374.078 125.717V123.529C374.078 123.246 374.17 123.016 374.345 122.848C374.521 122.68 374.742 122.596 375.009 122.596H377.19C377.503 122.596 377.74 122.688 377.907 122.863C378.075 123.039 378.159 123.261 378.159 123.529V125.717H378.167Z" fill="#3EC0F0"/>
<path d="M407.338 123.062C406.125 124.31 404.714 125.289 403.104 126C401.495 126.712 399.756 127.071 397.879 127.071C396.62 127.071 395.408 126.903 394.225 126.574C393.051 126.245 391.944 125.771 390.915 125.151C389.885 124.539 388.947 123.805 388.1 122.955C387.253 122.106 386.521 121.157 385.911 120.117C385.3 119.076 384.828 117.967 384.492 116.781C384.156 115.595 383.996 114.371 383.996 113.093C383.996 111.816 384.164 110.592 384.492 109.413C384.82 108.235 385.293 107.126 385.911 106.093C386.521 105.06 387.253 104.119 388.1 103.27C388.947 102.421 389.885 101.694 390.915 101.082C391.944 100.47 393.043 100.003 394.218 99.6662C395.392 99.3373 396.613 99.1689 397.879 99.1689C399.756 99.1689 401.502 99.5285 403.104 100.24C404.714 100.952 406.125 101.939 407.338 103.178V100.584C407.338 99.9646 407.651 99.651 408.268 99.651H410.45C411.114 99.651 411.442 99.9646 411.442 100.584V125.702C411.442 125.985 411.35 126.215 411.167 126.383C410.984 126.551 410.763 126.635 410.511 126.635H408.307C408.009 126.635 407.773 126.544 407.597 126.36C407.422 126.176 407.33 125.954 407.33 125.702V123.062H407.338ZM407.551 113.101C407.551 111.77 407.3 110.5 406.789 109.291C406.278 108.082 405.591 107.026 404.714 106.116C403.837 105.213 402.814 104.486 401.64 103.951C400.465 103.415 399.214 103.147 397.887 103.147C396.559 103.147 395.316 103.415 394.157 103.951C392.997 104.486 391.975 105.213 391.113 106.116C390.243 107.019 389.565 108.082 389.061 109.291C388.558 110.5 388.314 111.77 388.314 113.101C388.314 114.417 388.565 115.687 389.061 116.904C389.557 118.12 390.243 119.191 391.113 120.117C391.983 121.043 392.997 121.785 394.157 122.336C395.316 122.886 396.567 123.162 397.887 123.162C399.214 123.162 400.465 122.886 401.64 122.336C402.814 121.785 403.844 121.043 404.714 120.117C405.583 119.191 406.278 118.12 406.789 116.904C407.3 115.687 407.551 114.417 407.551 113.101Z" fill="#3EC0F0"/>
<path d="M421.6 94.7768C421.6 95.3965 421.287 95.7102 420.669 95.7102H418.488C417.824 95.7102 417.496 95.3965 417.496 94.7768V92.5887C417.496 92.3056 417.588 92.0761 417.771 91.9078C417.954 91.7394 418.175 91.6553 418.427 91.6553H420.631C420.929 91.6553 421.165 91.7471 421.341 91.9231C421.516 92.099 421.608 92.3209 421.608 92.5887V94.7768H421.6ZM421.6 125.717C421.6 126.336 421.287 126.65 420.669 126.65H418.488C417.824 126.65 417.496 126.336 417.496 125.717V100.622C417.496 100.339 417.588 100.109 417.771 99.9411C417.954 99.7728 418.175 99.6886 418.427 99.6886H420.631C420.929 99.6886 421.165 99.7804 421.341 99.9641C421.516 100.148 421.608 100.37 421.608 100.622V125.717H421.6Z" fill="#3EC0F0"/>
</svg>
