<svg width="201" height="103" viewBox="0 0 201 103" fill="none" xmlns="http://www.w3.org/2000/svg">
<path d="M100.452 19.5765C99.359 19.5765 98.5234 18.6764 98.5234 17.6478V2.73242C98.5234 1.63948 99.359 0.803711 100.452 0.803711C101.544 0.803711 102.38 1.70377 102.38 2.73242V17.5835C102.38 18.6764 101.48 19.5765 100.452 19.5765Z" fill="#1F1F1F"/>
<path d="M159.393 44.0073C158.879 44.0073 158.429 43.8144 158.043 43.4287C157.272 42.6572 157.272 41.4357 158.043 40.6642L168.584 30.1206C169.356 29.3491 170.577 29.3491 171.348 30.1206C172.12 30.8921 172.12 32.1136 171.348 32.8851L160.807 43.4287C160.422 43.8144 159.907 44.0073 159.393 44.0073Z" fill="#1F1F1F"/>
<path d="M198.729 102.961H183.881C182.789 102.961 181.953 102.061 181.953 101.033C181.953 100.004 182.789 99.104 183.881 99.104H198.729C199.822 99.104 200.657 100.004 200.657 101.033C200.657 102.061 199.822 102.961 198.729 102.961Z" fill="#1F1F1F"/>
<path d="M17.0239 102.961H2.1763C1.08362 102.961 0.248047 102.061 0.248047 101.033C0.248047 100.004 1.08362 99.104 2.1763 99.104H17.0239C18.1166 99.104 18.9522 100.004 18.9522 101.033C18.9522 102.061 18.1166 102.961 17.0239 102.961Z" fill="#1F1F1F"/>
<path d="M41.4479 44.0073C40.9337 44.0073 40.4838 43.8144 40.0981 43.4287L29.557 32.8851C28.7857 32.1136 28.7857 30.8921 29.557 30.1206C30.3283 29.3491 31.5495 29.3491 32.3208 30.1206L42.862 40.6642C43.6333 41.4357 43.6333 42.6572 42.862 43.4287C42.4763 43.8144 41.9621 44.0073 41.4479 44.0073Z" fill="#1F1F1F"/>
</svg>
