<svg width="282" height="269" viewBox="0 0 282 269" fill="none" xmlns="http://www.w3.org/2000/svg">
<path d="M209.089 24.57C186.725 1.12841 166.553 -5.37081 128.568 4.35024C76.4802 17.7375 77.2107 47.845 39.7881 61.1768C2.36557 74.5085 -6.73722 117.003 4.50079 134.279C15.7388 151.555 36.3043 176.663 38.2148 215.658C40.35 259.32 90.6401 280.262 145.706 261.319C200.773 242.377 203.245 223.213 237.689 216.991C291.07 207.381 296.52 133.946 252.411 91.8953C225.328 66.0651 227.294 43.6789 209.089 24.57Z" fill="#F3E600"/>
<path d="M98.4316 119.86V126.965H94.5498V119.86H98.4316ZM97.9434 159.729V166.32H94.0615V159.729H97.9434ZM99.5791 151.574C99.5791 150.679 99.4408 149.938 99.1641 149.353C98.8874 148.767 98.4398 148.254 97.8213 147.814C97.2028 147.375 96.3809 146.936 95.3555 146.496C93.1908 145.617 91.2783 144.714 89.6182 143.786C87.9743 142.858 86.6803 141.703 85.7363 140.319C84.8086 138.936 84.3447 137.137 84.3447 134.924C84.3447 132.906 84.8411 131.148 85.834 129.65C86.8431 128.153 88.2266 126.997 89.9844 126.184C91.7585 125.354 93.8011 124.938 96.1123 124.938C97.8701 124.938 99.4733 125.199 100.922 125.72C102.37 126.241 103.624 126.997 104.682 127.99C105.74 128.967 106.553 130.171 107.123 131.604C107.693 133.02 107.978 134.631 107.978 136.438H99.75C99.75 135.51 99.6523 134.712 99.457 134.045C99.278 133.378 99.0176 132.832 98.6758 132.409C98.334 131.986 97.9352 131.677 97.4795 131.481C97.0238 131.27 96.5273 131.164 95.9902 131.164C95.1764 131.164 94.5173 131.343 94.0127 131.701C93.5081 132.043 93.1419 132.499 92.9141 133.068C92.6862 133.638 92.5723 134.273 92.5723 134.973C92.5723 135.705 92.6943 136.348 92.9385 136.901C93.1989 137.438 93.6383 137.943 94.2568 138.415C94.8753 138.871 95.7217 139.343 96.7959 139.831C98.9118 140.726 100.8 141.654 102.46 142.614C104.12 143.575 105.422 144.755 106.366 146.154C107.326 147.538 107.807 149.328 107.807 151.525C107.807 153.641 107.31 155.448 106.317 156.945C105.325 158.426 103.941 159.558 102.167 160.339C100.393 161.12 98.3421 161.511 96.0146 161.511C94.4521 161.511 92.8978 161.307 91.3516 160.9C89.8216 160.493 88.4219 159.834 87.1523 158.923C85.8991 157.995 84.8981 156.766 84.1494 155.236C83.4007 153.706 83.0264 151.826 83.0264 149.597H91.2539C91.2539 150.687 91.3841 151.599 91.6445 152.331C91.9049 153.063 92.2549 153.649 92.6943 154.089C93.1501 154.512 93.6628 154.821 94.2324 155.017C94.8021 155.196 95.3962 155.285 96.0146 155.285C96.8447 155.285 97.5202 155.122 98.041 154.797C98.5618 154.455 98.9443 154.007 99.1885 153.454C99.4489 152.884 99.5791 152.258 99.5791 151.574Z" fill="#1F1F1F"/>
<path d="M131.03 101.993L116.898 106.523C115.499 105.577 114.052 104.183 112.653 102.441C111.255 100.698 110.531 98.2589 110.531 95.1721C110.531 89.3471 113.956 85.2647 120.853 82.9247L136.673 77.3984H141.882C145.933 77.3984 149.117 78.5933 151.48 81.0328C153.844 83.4724 155.001 86.7582 155.001 90.9403V166.864C153.988 167.063 152.445 167.312 150.419 167.661C148.393 168.009 146.368 168.159 144.294 168.159C142.22 168.159 140.339 168.009 138.699 167.711C137.059 167.412 135.66 166.814 134.551 165.968C133.441 165.122 132.573 163.927 131.946 162.383C131.319 160.89 131.03 158.898 131.03 156.459V101.993Z" fill="#1F1F1F"/>
<path d="M139.208 219.178C140.301 219.178 141.137 220.106 141.137 221.168L141.137 236.56C141.137 237.688 140.301 238.551 139.208 238.551C138.116 238.551 137.28 237.622 137.28 236.56L137.28 221.234C137.28 220.106 138.18 219.178 139.208 219.178Z" fill="#1F1F1F"/>
<path d="M80.2631 193.965C80.7773 193.965 81.2273 194.164 81.6129 194.562C82.3842 195.358 82.3842 196.618 81.6129 197.415L71.0718 208.295C70.3005 209.092 69.0792 209.092 68.3079 208.295C67.5366 207.499 67.5366 206.239 68.3079 205.443L78.8491 194.562C79.2347 194.164 79.7489 193.965 80.2631 193.965Z" fill="#1F1F1F"/>
<path d="M40.9273 133.125L55.7749 133.125C56.8676 133.125 57.7031 134.054 57.7031 135.115C57.7031 136.177 56.8676 137.105 55.7749 137.105L40.9273 137.105C39.8346 137.105 38.999 136.177 38.999 135.115C38.999 134.054 39.8346 133.125 40.9273 133.125Z" fill="#1F1F1F"/>
<path d="M222.634 133.125L237.482 133.125C238.575 133.125 239.41 134.054 239.41 135.115C239.41 136.177 238.575 137.105 237.482 137.105L222.634 137.105C221.542 137.105 220.706 136.177 220.706 135.115C220.706 134.054 221.542 133.125 222.634 133.125Z" fill="#1F1F1F"/>
<path d="M198.21 193.965C198.724 193.965 199.174 194.164 199.56 194.562L210.101 205.443C210.873 206.239 210.873 207.499 210.101 208.295C209.33 209.092 208.109 209.092 207.337 208.295L196.796 197.415C196.025 196.618 196.025 195.358 196.796 194.562C197.182 194.164 197.696 193.965 198.21 193.965Z" fill="#1F1F1F"/>
<path d="M139.202 51.3654C138.109 51.3654 137.273 50.4365 137.273 49.375V33.9826C137.273 32.8547 138.109 31.9922 139.202 31.9922C140.294 31.9922 141.13 32.921 141.13 33.9826V49.3086C141.13 50.4365 140.23 51.3654 139.202 51.3654Z" fill="#1F1F1F"/>
<path d="M198.147 76.5784C197.633 76.5784 197.183 76.3793 196.797 75.9812C196.026 75.1851 196.026 73.9245 196.797 73.1284L207.338 62.2475C208.11 61.4514 209.331 61.4514 210.102 62.2475C210.874 63.0437 210.874 64.3043 210.102 65.1004L199.561 75.9812C199.175 76.3793 198.661 76.5784 198.147 76.5784Z" fill="#1F1F1F"/>
<path d="M237.483 137.418H222.635C221.543 137.418 220.707 136.489 220.707 135.428C220.707 134.366 221.543 133.438 222.635 133.438H237.483C238.576 133.438 239.411 134.366 239.411 135.428C239.411 136.489 238.576 137.418 237.483 137.418Z" fill="#1F1F1F"/>
<path d="M55.7759 137.418H40.9283C39.8356 137.418 39 136.489 39 135.428C39 134.366 39.8356 133.438 40.9283 133.438H55.7759C56.8685 133.438 57.7041 134.366 57.7041 135.428C57.7041 136.489 56.8685 137.418 55.7759 137.418Z" fill="#1F1F1F"/>
<path d="M80.1999 76.5784C79.6857 76.5784 79.2358 76.3793 78.8501 75.9812L68.3089 65.1004C67.5376 64.3043 67.5376 63.0437 68.3089 62.2475C69.0803 61.4514 70.3015 61.4514 71.0728 62.2475L81.6139 73.1284C82.3852 73.9245 82.3852 75.1851 81.6139 75.9812C81.2283 76.3793 80.7141 76.5784 80.1999 76.5784Z" fill="#1F1F1F"/>
<path d="M177.799 120.492H181.227V129.779C181.227 130.886 180.995 131.824 180.533 132.592C180.071 133.354 179.423 133.93 178.59 134.32C177.757 134.711 176.777 134.906 175.65 134.906C174.537 134.906 173.557 134.711 172.711 134.32C171.871 133.93 171.214 133.354 170.738 132.592C170.27 131.824 170.035 130.886 170.035 129.779V120.492H173.473V129.779C173.473 130.365 173.557 130.844 173.727 131.215C173.896 131.579 174.143 131.846 174.469 132.016C174.794 132.185 175.188 132.27 175.65 132.27C176.119 132.27 176.513 132.185 176.832 132.016C177.151 131.846 177.392 131.579 177.555 131.215C177.717 130.844 177.799 130.365 177.799 129.779V120.492ZM191.109 130.932C191.109 130.71 191.076 130.512 191.011 130.336C190.946 130.154 190.826 129.984 190.65 129.828C190.474 129.672 190.22 129.516 189.888 129.359C189.563 129.197 189.133 129.027 188.599 128.852C187.974 128.643 187.372 128.409 186.793 128.148C186.213 127.882 185.696 127.572 185.24 127.221C184.784 126.863 184.423 126.446 184.156 125.971C183.889 125.489 183.755 124.929 183.755 124.291C183.755 123.679 183.892 123.129 184.166 122.641C184.439 122.146 184.82 121.726 185.308 121.381C185.803 121.029 186.382 120.762 187.046 120.58C187.711 120.391 188.436 120.297 189.224 120.297C190.266 120.297 191.184 120.479 191.978 120.844C192.779 121.202 193.404 121.713 193.853 122.377C194.309 123.035 194.537 123.812 194.537 124.711H191.129C191.129 124.353 191.054 124.037 190.904 123.764C190.761 123.49 190.543 123.275 190.25 123.119C189.957 122.963 189.589 122.885 189.146 122.885C188.716 122.885 188.355 122.95 188.062 123.08C187.769 123.21 187.548 123.386 187.398 123.607C187.248 123.822 187.173 124.06 187.173 124.32C187.173 124.535 187.232 124.73 187.349 124.906C187.473 125.076 187.645 125.235 187.867 125.385C188.095 125.535 188.368 125.678 188.687 125.814C189.013 125.951 189.377 126.085 189.781 126.215C190.536 126.456 191.207 126.726 191.793 127.025C192.385 127.318 192.883 127.654 193.287 128.031C193.697 128.402 194.006 128.826 194.214 129.301C194.429 129.776 194.537 130.313 194.537 130.912C194.537 131.55 194.413 132.117 194.166 132.611C193.918 133.106 193.563 133.526 193.101 133.871C192.639 134.21 192.086 134.467 191.441 134.643C190.796 134.818 190.077 134.906 189.283 134.906C188.554 134.906 187.834 134.815 187.125 134.633C186.421 134.444 185.783 134.158 185.211 133.773C184.638 133.383 184.179 132.885 183.834 132.279C183.495 131.667 183.326 130.941 183.326 130.102H186.763C186.763 130.518 186.819 130.87 186.929 131.156C187.04 131.443 187.203 131.674 187.418 131.85C187.632 132.019 187.896 132.143 188.209 132.221C188.521 132.292 188.879 132.328 189.283 132.328C189.719 132.328 190.071 132.266 190.337 132.143C190.604 132.012 190.8 131.843 190.923 131.635C191.047 131.42 191.109 131.186 191.109 130.932ZM201.323 134.711H198.169L198.189 132.074H201.323C201.974 132.074 202.525 131.918 202.974 131.605C203.43 131.293 203.775 130.827 204.009 130.209C204.25 129.584 204.37 128.816 204.37 127.904V127.289C204.37 126.605 204.302 126.007 204.165 125.492C204.035 124.971 203.84 124.538 203.579 124.193C203.319 123.842 202.993 123.578 202.603 123.402C202.219 123.227 201.776 123.139 201.275 123.139H198.111V120.492H201.275C202.238 120.492 203.12 120.658 203.921 120.99C204.728 121.316 205.425 121.785 206.011 122.396C206.603 123.002 207.059 123.721 207.378 124.555C207.704 125.382 207.866 126.299 207.866 127.309V127.904C207.866 128.907 207.704 129.825 207.378 130.658C207.059 131.492 206.607 132.211 206.021 132.816C205.435 133.422 204.741 133.891 203.941 134.223C203.146 134.548 202.274 134.711 201.323 134.711ZM200.132 120.492V134.711H196.704V120.492H200.132Z" fill="black"/>
</svg>
