<svg width="29" height="35" viewBox="0 0 29 35" fill="none" xmlns="http://www.w3.org/2000/svg">
<g opacity="0.5">
<path d="M14.245 5.02381C15.0251 3.91661 16.6311 3.45528 17.5488 2.76328C18.4665 2.07128 18.283 2.20968 19.9808 2.99395C21.8621 3.87048 24.0646 3.82434 25.8083 4.97768C25.9001 5.02381 25.9919 5.06994 26.0377 5.16221C26.3131 5.34674 26.5884 5.53128 26.8178 5.76195C27.5061 6.36168 28.1026 7.05368 28.4238 7.93021C29.3415 10.6521 26.2213 15.8651 23.3764 16.8339C19.2466 18.587 13.2355 16.6494 13.3732 16.6494C13.3732 16.6494 13.1438 16.4187 13.6485 16.3726C16.1264 16.1419 17.5947 15.1731 17.9159 14.5734C16.5852 13.6046 15.3004 13.0049 14.0615 11.8977C11.5836 9.59101 12.9143 7.00755 14.245 5.02381Z" fill="#DADADA"/>
</g>
<path d="M13.9291 5.16262C14.6174 4.05542 15.2139 2.85595 16.0857 2.11782C16.9117 1.37968 18.0129 1.10288 19.6648 1.74875C21.5462 2.44075 23.3357 3.31728 25.0794 4.33222C25.1712 4.37835 25.2629 4.42448 25.3088 4.47062C25.5841 4.60902 25.8594 4.79355 26.0889 4.97808C26.7772 5.48555 27.4196 6.13142 27.6949 6.96182C28.7044 9.49915 25.9512 14.8045 23.2439 15.9578C19.3436 17.9415 13.3784 16.5114 13.562 16.5114C13.3784 16.2807 13.6079 16.3269 13.8373 16.2807C15.9481 15.9578 17.3246 15.4503 17.7376 14.5277C16.4069 13.6973 15.3057 12.8208 14.0667 11.8519C11.543 9.77595 12.6901 7.19248 13.9291 5.16262Z" fill="#3EC0F0"/>
<path d="M6.12626 16.6484C-5.2076 21.7692 3.09778 33.5332 6.58512 33.9484C8.32879 33.2564 11.449 21.5847 6.12626 16.6484Z" fill="black"/>
<path d="M9.56641 16.1875L12.7325 16.6488C12.7325 16.6488 18.8354 26.1984 13.0996 34.8254C10.0253 34.7331 10.0253 34.7331 10.0253 34.7331C14.9351 25.5987 9.56641 16.1875 9.56641 16.1875Z" fill="black"/>
<path d="M16.1289 18.4492C16.1289 18.4492 19.708 24.6311 16.5419 33.3503L19.2033 31.3666L20.534 27.1223L22.8283 25.969L20.8552 24.6772L19.1115 22.186L16.1289 18.4492Z" fill="black"/>
<path d="M21.2246 8.80814C21.4999 7.60867 21.9129 6.45534 21.8211 5.4404C21.7293 4.42547 21.2246 3.5028 19.7562 2.8108C18.1043 2.02654 16.3607 1.38067 14.5711 0.873204C14.4793 0.827071 14.3876 0.827071 14.3417 0.827071C14.0663 0.734804 13.791 0.688671 13.5157 0.642537C12.6898 0.504137 11.9097 0.504137 11.1755 0.827071C8.83533 1.79587 7.18343 7.00894 8.19293 9.54627C8.83533 11.7145 9.98249 13.7444 11.5885 15.5436C11.7262 15.7281 12.0015 15.5897 12.0015 15.4052C12.0932 14.298 12.2768 13.2369 12.598 12.1759C14.0205 12.5449 15.4429 12.8217 16.8654 12.9601C19.7562 13.3292 20.7198 10.9303 21.2246 8.80814Z" fill="black"/>
<path d="M20.58 8.25345C20.8554 7.05398 21.2683 5.90065 21.1766 4.88572C21.0848 3.87078 20.58 2.94812 19.1117 2.25612C17.4598 1.47185 15.7161 0.825983 13.9266 0.318516C13.8348 0.272383 13.743 0.272383 13.6971 0.272383C13.4218 0.180117 13.1465 0.133983 12.8712 0.0878498C12.0452 -0.0505502 11.2652 -0.0505499 10.531 0.272383C8.1908 1.24118 6.5389 6.45425 7.5484 8.99158C8.1908 11.1599 9.33795 13.1897 10.944 14.9889C11.0816 15.1735 11.3569 15.0351 11.3569 14.8505C11.4487 13.7433 11.6323 12.6823 11.9535 11.6212C13.3759 11.9903 14.7984 12.267 16.2209 12.4054C19.1117 12.8206 20.0753 10.3756 20.58 8.25345Z" fill="white"/>
</svg>
