<svg width="63" height="70" viewBox="0 0 63 70" fill="none" xmlns="http://www.w3.org/2000/svg">
<path d="M3.49251 14.723L40.5 7.5L62.8185 55.1057L18.4137 69.8584L3.49251 14.723Z" fill="#F3E600"/>
<path d="M25.7073 28.8123C25.2445 27.4913 24.6755 26.2131 24.6596 25.0174C24.643 23.841 25.1648 22.7445 26.849 21.7674C28.7374 20.6699 30.7312 19.7175 32.7861 18.9297C32.8813 18.8938 32.9813 18.8562 33.0766 18.8203C33.4106 18.6754 33.7355 18.5775 34.0477 18.5169C34.983 18.276 35.9401 18.19 36.8347 18.4565C39.6851 19.2993 42.1805 25.0907 41.242 28.1114C40.1795 32.685 34.8172 36.7525 34.9196 36.5943C34.5982 36.5957 34.79 36.4147 34.9099 36.2173C36.0928 34.2355 36.6522 32.7361 36.1639 31.7646C34.5368 32.3396 33.0369 32.7008 31.3564 33.0675C27.9008 33.8175 26.5266 31.1516 25.7073 28.8123Z" fill="#3EC0F0"/>
<path d="M40.5022 35.0698C54.1726 32.656 53.4092 48.9068 50.377 51.5211C48.3812 51.9893 38.4763 43.0494 40.5022 35.0698Z" fill="black"/>
<path d="M36.8966 36.8094L34.2085 39.2378C34.2085 39.2378 34.1843 52.0094 44.6657 56.4342C47.4906 54.382 47.4906 54.382 47.4906 54.382C37.4762 48.9668 36.8966 36.8094 36.8966 36.8094Z" fill="black"/>
<path d="M31.9352 43.033C31.9352 43.033 32.2351 51.0751 40.4352 57.1846L36.7375 57.0369L32.9504 53.9041L30.0939 54.2724L31.1582 51.8306L31.3011 48.3825L31.9352 43.033Z" fill="black"/>
<path d="M33.9462 25.1424C33.1613 24.1168 32.461 23.0349 31.5399 22.4113C30.6324 21.8017 29.5134 21.6388 27.8847 22.4209C26.0586 23.2992 24.2914 24.3294 22.6193 25.4922C22.5395 25.5468 22.4629 25.6028 22.3864 25.6588C22.1008 25.8371 21.8581 26.0346 21.6498 26.2435C20.9796 26.8305 20.4224 27.5189 20.1651 28.3336C19.3488 30.9303 22.5576 35.7814 25.3879 36.6073C27.6616 37.4825 30.1754 37.8649 32.7882 37.7423C33.03 37.7327 33.0919 37.4348 32.9635 37.3147C32.0924 36.5173 31.3286 35.6306 30.6743 34.6673C31.9593 33.7237 33.1856 32.6988 34.3345 31.608C36.7004 29.3627 35.3401 26.958 33.9462 25.1424Z" fill="black"/>
<path d="M33.0321 25.3426C32.2472 24.317 31.5469 23.2351 30.6259 22.6115C29.7184 22.0019 28.5993 21.8389 26.9706 22.6211C25.1446 23.4994 23.3773 24.5296 21.7052 25.6924C21.6254 25.747 21.5489 25.803 21.4724 25.859C21.1867 26.0373 20.944 26.2348 20.7358 26.4437C20.0656 27.0307 19.5083 27.7191 19.2511 28.5338C18.4347 31.1305 21.6435 35.9816 24.4738 36.8075C26.7475 37.6827 29.2613 38.0651 31.8741 37.9425C32.116 37.9329 32.1779 37.635 32.0495 37.5149C31.1784 36.7175 30.4145 35.8308 29.7602 34.8675C31.0453 33.9238 32.2716 32.899 33.4205 31.8082C35.7864 29.5629 34.4261 27.1582 33.0321 25.3426Z" fill="white"/>
</svg>
