<svg width="124" height="124" viewBox="0 0 124 124" fill="none" xmlns="http://www.w3.org/2000/svg">
<rect width="84.7027" height="84.9536" transform="matrix(-0.715535 0.698576 0.698576 0.715535 62.6074 4)" fill="#F3E600"/>
<path d="M47.6458 38.7148C47.3582 36.1248 46.8613 33.5747 47.328 31.3761C47.7855 29.2127 49.1811 27.3905 52.6239 26.2079C56.4852 24.8783 60.4764 23.853 64.5096 23.1517C64.6963 23.1203 64.8923 23.0874 65.0789 23.0561C65.7415 22.9112 66.3682 22.8491 66.9564 22.8511C68.7434 22.7476 70.5056 22.9362 72.0089 23.7486C76.8017 26.3255 78.9037 37.8495 75.9592 43.0498C72.1477 51.0531 60.7894 56.5727 61.0397 56.3196C60.4593 56.206 60.8802 55.9434 61.1784 55.6247C64.1333 52.4183 65.7637 49.8707 65.2852 47.9124C62.1119 48.3782 59.2566 48.498 56.0731 48.5625C49.5288 48.6878 48.1544 43.3015 47.6458 38.7148Z" fill="#3EC0F0"/>
<path d="M50.5408 69.5412C34.448 88.8197 60.1256 101.484 66.8915 98.9805C69.419 96.2647 64.6446 73.1828 50.5408 69.5412Z" fill="black"/>
<path d="M56.48 65.398L62.6484 63.2728C62.6484 63.2728 82.3069 74.1247 79.6172 94.2567C73.9033 96.916 73.9033 96.916 73.9033 96.916C74.6474 76.6683 56.48 65.398 56.48 65.398Z" fill="black"/>
<path d="M70.0852 59.1533C70.0852 59.1533 85.1731 68.2921 87.6267 90.7589L91.5216 83.4014L89.7915 72.6942L93.7256 67.5238L87.8392 66.9989L81.0634 63.6091L70.0852 59.1533Z" fill="black"/>
<path d="M64.03 34.9645C63.0391 32.7996 62.224 30.5621 60.8209 29.0852C59.4364 27.6388 57.4852 26.9352 54.2232 27.7804C50.5653 28.7305 46.9506 29.9804 43.4524 31.5081C43.2858 31.5792 43.1246 31.6543 42.9633 31.7293C42.3743 31.953 41.8546 32.2273 41.3924 32.5352C39.9402 33.3691 38.6498 34.4301 37.8482 35.8311C35.2998 40.298 39.0782 50.3557 43.8416 52.8943C47.5806 55.322 51.9568 56.9327 56.7208 57.6532C57.1611 57.7232 57.3962 57.1992 57.2143 56.9324C55.9733 55.1549 54.9628 53.2523 54.1815 51.2489C56.8906 49.9833 59.5274 48.5475 62.0518 46.9627C67.2499 43.7009 65.7923 38.7986 64.03 34.9645Z" fill="black"/>
<path d="M62.2957 35.003C61.3047 32.8382 60.4896 30.6006 59.0865 29.1238C57.7021 27.6774 55.7509 26.9737 52.4888 27.819C48.8309 28.7691 45.2162 30.0189 41.718 31.5466C41.5515 31.6178 41.3902 31.6928 41.229 31.7679C40.6399 31.9915 40.1203 32.2659 39.658 32.5738C38.2058 33.4077 36.9154 34.4686 36.1138 35.8696C33.5654 40.3366 37.3439 50.3942 42.1073 52.9329C45.8462 55.3606 50.2224 56.9713 54.9865 57.6918C55.4267 57.7618 55.6618 57.2378 55.4799 56.9709C54.2389 55.1934 53.2284 53.2909 52.4472 51.2875C55.1562 50.0219 57.793 48.5861 60.3174 47.0013C65.5155 43.7394 64.058 38.8372 62.2957 35.003Z" fill="white"/>
</svg>
