<svg width="105" height="101" viewBox="0 0 105 101" fill="none" xmlns="http://www.w3.org/2000/svg">
<rect x="76.4883" y="1.30762" width="79.3969" height="80.0819" transform="rotate(72.7703 76.4883 1.30762)" fill="#F3E600"/>
<path d="M73.6119 38.6821C74.8736 36.5002 76.2824 34.4406 76.7995 32.2935C77.3098 30.1814 76.9523 27.9833 74.7433 25.5039C72.2672 22.7202 69.5679 20.1531 66.7061 17.8563C66.5732 17.751 66.4337 17.6404 66.3008 17.5351C65.8425 17.1315 65.379 16.8162 64.9199 16.5739C63.5689 15.7405 62.1203 15.1767 60.6234 15.2748C55.8564 15.5755 49.6016 24.9424 49.8127 30.7847C49.5764 39.4773 56.2158 49.0948 56.1222 48.7661C56.6199 48.906 56.3971 48.498 56.2924 48.0911C55.2745 44.016 55.0247 41.0759 56.1821 39.5345C58.4682 41.2652 60.6451 42.5564 63.0999 43.9348C68.1491 46.7617 71.378 42.5463 73.6119 38.6821Z" fill="#3EC0F0"/>
<path d="M60.5886 59.867C68.7725 82.9851 43.7011 85.4781 38.7107 80.8384C37.339 77.4904 47.7347 58.2305 60.5886 59.867Z" fill="black"/>
<path d="M56.7466 54.0306L52.1534 49.9433C52.1534 49.9433 32.6391 52.9003 29.329 72.0989C33.3927 76.5115 33.3927 76.5114 33.3927 76.5114C38.3691 57.8892 56.7466 54.0306 56.7466 54.0306Z" fill="black"/>
<path d="M45.6059 46.8957C45.6059 46.8957 33.4216 49.3035 26.788 64.9453L25.7972 58.5041L29.3362 51.207L27.834 46.3445L31.9135 47.6152L37.2269 47.0531L45.6059 46.8957Z" fill="black"/>
<path d="M62.3486 28.5539C63.9881 27.0416 65.5196 25.3917 67.2047 24.6618C68.8629 23.9512 70.6652 24.1357 72.8684 26.2403C75.3381 28.6024 77.6541 31.2128 79.7679 34.0218C79.8692 34.1541 79.9648 34.2877 80.0603 34.4213C80.4298 34.8645 80.7248 35.3238 80.9616 35.7892C81.7591 37.1327 82.3396 38.6109 82.4029 40.1883C82.5992 45.2147 75.6256 52.5831 70.8968 52.862C67.0108 53.4675 62.9554 53.0827 58.9545 51.746C58.5834 51.6254 58.6101 51.0623 58.8588 50.9007C60.5379 49.8364 62.0875 48.5653 63.4989 47.1094C61.8949 44.8607 60.4155 42.4909 59.0834 40.0352C56.3397 34.9801 59.4394 31.2292 62.3486 28.5539Z" fill="black"/>
<path d="M63.6846 29.3087C65.324 27.7965 66.8556 26.1466 68.5406 25.4167C70.1988 24.706 72.0011 24.8905 74.2043 26.9951C76.6741 29.3572 78.99 31.9677 81.1038 34.7766C81.2051 34.909 81.3007 35.0426 81.3963 35.1762C81.7657 35.6193 82.0607 36.0787 82.2975 36.5441C83.095 37.8876 83.6755 39.3657 83.7389 40.9432C83.9351 45.9696 76.9615 53.3379 72.2327 53.6169C68.3467 54.2224 64.2913 53.8375 60.2904 52.5008C59.9193 52.3803 59.9461 51.8172 60.1947 51.6556C61.8738 50.5912 63.4234 49.3201 64.8348 47.8643C63.2309 45.6156 61.7515 43.2458 60.4193 40.7901C57.6756 35.735 60.7753 31.9841 63.6846 29.3087Z" fill="white"/>
</svg>
