<svg width="785" height="259" viewBox="0 0 785 259" fill="none" xmlns="http://www.w3.org/2000/svg">
<path d="M652.594 35.4515L651.954 37.5527L644.219 35.0363L644.86 32.9351L652.594 35.4515Z" fill="black"/>
<path d="M644.769 32.7578L652.766 35.359L652.043 37.7285L644.049 35.1274L644.769 32.7578ZM652.421 35.5425L644.947 33.1108L644.389 34.9438L651.863 37.3755L652.421 35.5425Z" fill="black"/>
<path d="M668.551 44.4261L667.415 46.293L660.548 41.842L661.684 39.9751L668.551 44.4261Z" fill="black"/>
<path d="M661.639 39.7767L668.738 44.3774L667.458 46.4814L660.358 41.8807L661.639 39.7767ZM668.361 44.4677L661.726 40.1664L660.736 41.7932L667.37 46.0945L668.361 44.4677Z" fill="black"/>
<path d="M682.215 56.3355L680.759 57.9453L674.831 52.2347L676.286 50.6248L682.215 56.3355Z" fill="black"/>
<path d="M676.282 50.424L682.41 56.3295L680.769 58.1455L674.64 52.24L676.282 50.424ZM682.024 56.3408L676.296 50.8222L675.026 52.2259L680.755 57.7445L682.024 56.3408Z" fill="black"/>
<path d="M693.559 70.5461L691.846 71.8594L687.009 65.1405L688.722 63.8272L693.559 70.5461Z" fill="black"/>
<path d="M688.749 63.629L693.75 70.5739L691.819 72.0566L686.817 65.1118L688.749 63.629ZM693.367 70.5146L688.691 64.0244L687.198 65.1711L691.873 71.6612L693.367 70.5146Z" fill="black"/>
<path d="M702.105 86.7919L700.177 87.7324L696.716 80.1634L698.645 79.2229L702.105 86.7919Z" fill="black"/>
<path d="M698.707 79.033L702.285 86.859L700.107 87.9209L696.529 80.0949L698.707 79.033ZM701.921 86.7234L698.578 79.4086L696.896 80.2276L700.239 87.5424L701.921 86.7234Z" fill="black"/>
<path d="M707.035 104.729L704.948 105.187L703.26 96.999L705.347 96.5415L707.035 104.729Z" fill="black"/>
<path d="M705.454 96.3743L707.199 104.839L704.844 105.355L703.098 96.8912L705.454 96.3743ZM706.874 104.621L705.243 96.7104L703.424 97.1115L705.054 105.022L706.874 104.621Z" fill="black"/>
<path d="M707.426 123.502L705.295 123.386L705.724 115.026L707.855 115.142L707.426 123.502Z" fill="black"/>
<path d="M705.595 114.876L708 115.009L707.557 123.651L705.152 123.519L705.595 114.876ZM707.713 115.275L705.855 115.173L705.439 123.25L707.297 123.352L707.713 115.275Z" fill="black"/>
<path d="M702.952 141.738L700.928 141.044L703.491 133.102L705.516 133.796L702.952 141.738Z" fill="black"/>
<path d="M703.403 132.921L705.688 133.706L703.039 141.916L700.755 141.131L703.403 132.921ZM705.34 133.884L703.575 133.277L701.1 140.95L702.864 141.557L705.34 133.884Z" fill="black"/>
<path d="M694.334 158.141L692.526 156.971L696.832 149.88L698.641 151.049L694.334 158.141Z" fill="black"/>
<path d="M696.787 149.682L698.828 151.001L694.377 158.333L692.336 157.014L696.787 149.682ZM698.451 151.094L696.875 150.075L692.714 156.929L694.289 157.949L698.451 151.094Z" fill="black"/>
<path d="M682.769 172.233L681.21 170.731L686.741 164.611L688.301 166.113L682.769 172.233Z" fill="black"/>
<path d="M686.733 164.41L688.492 166.104L682.774 172.431L681.015 170.736L686.733 164.41ZM688.106 166.121L686.747 164.811L681.401 170.725L682.761 172.035L688.106 166.121Z" fill="black"/>
<path d="M669.362 184.146L668.03 182.427L674.363 177.199L675.695 178.919L669.362 184.146Z" fill="black"/>
<path d="M674.382 177.001L675.887 178.941L669.34 184.344L667.835 182.403L674.382 177.001ZM675.501 178.899L674.338 177.399L668.218 182.449L669.381 183.948L675.501 178.899Z" fill="black"/>
<path d="M654.803 194.232L653.662 192.371L660.515 187.898L661.656 189.759L654.803 194.232Z" fill="black"/>
<path d="M660.558 187.702L661.844 189.804L654.758 194.43L653.472 192.328L660.558 187.702ZM661.466 189.713L660.473 188.089L653.85 192.413L654.843 194.037L661.466 189.713Z" fill="black"/>
<path d="M635.486 198.849L635.489 196.646L643.598 196.657L643.595 198.86L635.486 198.849Z" fill="black"/>
<path d="M635.352 196.505L643.734 196.517L643.732 199.002L635.349 198.991L635.352 196.505ZM643.458 196.799L635.623 196.788L635.62 198.708L643.455 198.72L643.458 196.799Z" fill="black"/>
<path d="M618.443 198.83L618.446 196.627L626.555 196.638L626.552 198.841L618.443 198.83Z" fill="black"/>
<path d="M618.309 196.486L626.691 196.497L626.689 198.982L618.306 198.971L618.309 196.486ZM626.418 196.78L618.582 196.768L618.58 198.689L626.415 198.7L626.418 196.78Z" fill="black"/>
<path d="M601.404 198.807L601.407 196.604L609.516 196.615L609.513 198.818L601.404 198.807Z" fill="black"/>
<path d="M601.27 196.463L609.652 196.475L609.65 198.96L601.267 198.949L601.27 196.463ZM609.379 196.757L601.543 196.746L601.541 198.666L609.376 198.678L609.379 196.757Z" fill="black"/>
<path d="M584.365 198.784L584.368 196.581L592.477 196.592L592.474 198.795L584.365 198.784Z" fill="black"/>
<path d="M584.231 196.44L592.613 196.451L592.611 198.937L584.228 198.925L584.231 196.44ZM592.337 196.734L584.502 196.722L584.499 198.643L592.334 198.654L592.337 196.734Z" fill="black"/>
<path d="M567.322 198.765L567.325 196.562L575.434 196.573L575.431 198.776L567.322 198.765Z" fill="black"/>
<path d="M567.188 196.421L575.57 196.433L575.568 198.918L567.185 198.907L567.188 196.421ZM575.297 196.712L567.461 196.701L567.459 198.621L575.294 198.633L575.297 196.712Z" fill="black"/>
<path d="M550.287 198.742L550.289 196.539L558.398 196.55L558.396 198.753L550.287 198.742Z" fill="black"/>
<path d="M550.153 196.398L558.535 196.409L558.532 198.895L550.15 198.883L550.153 196.398ZM558.262 196.692L550.426 196.68L550.423 198.601L558.259 198.612L558.262 196.692Z" fill="black"/>
<path d="M533.244 198.719L533.246 196.516L541.355 196.528L541.353 198.73L533.244 198.719Z" fill="black"/>
<path d="M533.11 196.375L541.492 196.387L541.489 198.872L533.107 198.861L533.11 196.375ZM541.219 196.669L533.383 196.658L533.38 198.578L541.216 198.59L541.219 196.669Z" fill="black"/>
<path d="M516.205 198.699L516.207 196.496L524.316 196.507L524.314 198.71L516.205 198.699Z" fill="black"/>
<path d="M516.071 196.355L524.453 196.366L524.45 198.852L516.068 198.84L516.071 196.355ZM524.18 196.646L516.344 196.635L516.341 198.555L524.177 198.566L524.18 196.646Z" fill="black"/>
<path d="M499.17 198.676L499.172 196.473L507.281 196.485L507.279 198.687L499.17 198.676Z" fill="black"/>
<path d="M499.035 196.332L507.418 196.344L507.415 198.829L499.033 198.818L499.035 196.332ZM507.142 196.626L499.306 196.615L499.304 198.535L507.139 198.547L507.142 196.626Z" fill="black"/>
<path d="M482.134 198.654L482.137 196.451L490.246 196.462L490.243 198.665L482.134 198.654Z" fill="black"/>
<path d="M482 196.31L490.383 196.321L490.38 198.807L481.998 198.795L482 196.31ZM490.109 196.604L482.274 196.592L482.271 198.513L490.107 198.524L490.109 196.604Z" fill="black"/>
<path d="M465.091 198.632L465.094 196.429L473.203 196.441L473.2 198.644L465.091 198.632Z" fill="black"/>
<path d="M464.957 196.289L473.34 196.3L473.337 198.785L464.955 198.774L464.957 196.289ZM473.064 196.582L465.228 196.571L465.225 198.491L473.061 198.503L473.064 196.582Z" fill="black"/>
<path d="M448.06 198.612L448.063 196.409L456.172 196.42L456.169 198.623L448.06 198.612Z" fill="black"/>
<path d="M447.926 196.268L456.309 196.279L456.306 198.765L447.923 198.753L447.926 196.268ZM456.035 196.559L448.2 196.548L448.197 198.468L456.032 198.479L456.035 196.559Z" fill="black"/>
<path d="M431.013 198.589L431.016 196.386L439.125 196.398L439.122 198.601L431.013 198.589Z" fill="black"/>
<path d="M430.879 196.246L439.262 196.257L439.259 198.742L430.876 198.731L430.879 196.246ZM438.988 196.539L431.153 196.528L431.15 198.448L438.985 198.46L438.988 196.539Z" fill="black"/>
<path d="M210.77 199.508L411.867 199.508L411.867 195.435L214.374 195.435C213.208 196.825 212.004 198.18 210.77 199.508Z" fill="black"/>
<path d="M214.307 195.293L412 195.293L412 199.648L210.444 199.648L210.665 199.408C211.899 198.081 213.111 196.714 214.263 195.341L214.307 195.293ZM411.726 195.576L214.433 195.576C213.357 196.852 212.233 198.126 211.087 199.366L411.726 199.366L411.726 195.576Z" fill="black"/>
<path d="M213.472 35.4062L629.867 35.4062L629.867 31.3337L208.821 31.3336C210.408 32.6469 211.959 34.0054 213.472 35.4062Z" fill="black"/>
<path d="M208.426 31.1928L630 31.1929L630 35.5479L213.416 35.5478L213.378 35.5111C211.873 34.1131 210.308 32.7462 208.732 31.4442L208.426 31.1928ZM629.726 31.4753L209.206 31.4752C210.669 32.6925 212.119 33.9662 213.52 35.2654L629.726 35.2654L629.726 31.4753Z" fill="black"/>
<g filter="url(#filter0_d_3994_9087)">
<path d="M120 10.4915C62.0101 10.4915 15 59.2362 15 119.366C15 179.495 62.0101 228.24 120 228.24C177.99 228.24 225 179.496 225 119.366C225 59.2362 177.99 10.4915 120 10.4915Z" fill="white"/>
</g>
<path d="M109.145 114.02H118.168C121.059 114.02 123.441 113.531 125.316 112.555C127.191 111.539 128.578 110.133 129.477 108.336C130.414 106.5 130.883 104.371 130.883 101.949C130.883 99.7617 130.453 97.8281 129.594 96.1484C128.773 94.4297 127.504 93.1016 125.785 92.1641C124.066 91.1875 121.898 90.6992 119.281 90.6992C117.211 90.6992 115.297 91.1094 113.539 91.9297C111.781 92.75 110.375 93.9023 109.32 95.3867C108.266 96.8711 107.738 98.668 107.738 100.777H90.8047C90.8047 96.0898 92.0547 92.0078 94.5547 88.5312C97.0938 85.0547 100.492 82.3398 104.75 80.3867C109.008 78.4336 113.695 77.457 118.812 77.457C124.594 77.457 129.652 78.3945 133.988 80.2695C138.324 82.1055 141.703 84.8203 144.125 88.4141C146.547 92.0078 147.758 96.4609 147.758 101.773C147.758 104.469 147.133 107.086 145.883 109.625C144.633 112.125 142.836 114.391 140.492 116.422C138.188 118.414 135.375 120.016 132.055 121.227C128.734 122.398 125.004 122.984 120.863 122.984H109.145V114.02ZM109.145 126.852V118.121H120.863C125.512 118.121 129.594 118.648 133.109 119.703C136.625 120.758 139.574 122.281 141.957 124.273C144.34 126.227 146.137 128.551 147.348 131.246C148.559 133.902 149.164 136.852 149.164 140.094C149.164 144.078 148.402 147.633 146.879 150.758C145.355 153.844 143.207 156.461 140.434 158.609C137.699 160.758 134.496 162.398 130.824 163.531C127.152 164.625 123.148 165.172 118.812 165.172C115.219 165.172 111.684 164.684 108.207 163.707C104.77 162.691 101.645 161.188 98.832 159.195C96.0586 157.164 93.832 154.625 92.1523 151.578C90.5117 148.492 89.6914 144.84 89.6914 140.621H106.625C106.625 142.809 107.172 144.762 108.266 146.48C109.359 148.199 110.863 149.547 112.777 150.523C114.73 151.5 116.898 151.988 119.281 151.988C121.977 151.988 124.281 151.5 126.195 150.523C128.148 149.508 129.633 148.102 130.648 146.305C131.703 144.469 132.23 142.34 132.23 139.918C132.23 136.793 131.664 134.293 130.531 132.418C129.398 130.504 127.777 129.098 125.668 128.199C123.559 127.301 121.059 126.852 118.168 126.852H109.145Z" fill="black"/>
<rect x="652.062" y="119.782" width="81.9912" height="89.5713" transform="rotate(-43.7474 652.062 119.782)" fill="#F3E600"/>
<path d="M694.161 104.214C693.625 101.759 692.896 99.3625 693.113 97.2107C693.326 95.0935 694.46 93.2136 697.596 91.7508C701.113 90.1071 704.784 88.7426 708.528 87.6846C708.701 87.6367 708.883 87.5864 709.056 87.5385C709.668 87.3363 710.255 87.2169 710.812 87.1625C712.491 86.8924 714.177 86.9045 715.682 87.5393C720.478 89.5505 723.64 100.394 721.384 105.66C718.594 113.695 708.412 120.071 708.623 119.805C708.062 119.751 708.434 119.46 708.683 119.126C711.152 115.77 712.435 113.172 711.783 111.341C708.828 112.091 706.14 112.479 703.135 112.845C696.958 113.592 695.109 108.561 694.161 104.214Z" fill="#3EC0F0"/>
<path d="M718.714 118.207C743.307 116.168 738.493 145.131 732.594 149.305C728.979 149.81 713.442 132.153 718.714 118.207Z" fill="black"/>
<path d="M712.151 120.639L706.891 124.54C706.891 124.54 704.121 147.421 721.666 157.104C727.087 153.9 727.087 153.9 727.087 153.9C710.577 142.52 712.151 120.639 712.151 120.639Z" fill="black"/>
<path d="M702.265 130.911C702.265 130.911 701.077 145.356 714.214 157.661L707.733 156.779L701.733 150.539L696.623 150.722L699.019 146.529L700.007 140.38L702.265 130.911Z" fill="black"/>
<path d="M709.286 99.0193C708.128 97.0392 707.129 94.9726 705.651 93.6914C704.194 92.4375 702.277 91.9498 699.277 93.072C695.914 94.3326 692.622 95.8764 689.468 97.6753C689.318 97.7594 689.173 97.8468 689.028 97.9341C688.494 98.2048 688.03 98.5175 687.624 98.8568C686.335 99.795 685.223 100.935 684.607 102.355C682.651 106.88 687.25 116.158 692.014 118.136C695.798 120.105 700.102 121.23 704.682 121.465C705.106 121.49 705.275 120.965 705.075 120.727C703.72 119.142 702.571 117.415 701.628 115.57C704.061 114.097 706.409 112.469 708.636 110.708C713.221 107.085 711.343 102.526 709.286 99.0193Z" fill="black"/>
<path d="M707.653 99.2156C706.495 97.2355 705.496 95.1689 704.018 93.8877C702.561 92.6338 700.644 92.1461 697.644 93.2683C694.281 94.5289 690.989 96.0727 687.835 97.8716C687.685 97.9557 687.54 98.0431 687.395 98.1304C686.861 98.4011 686.397 98.7138 685.991 99.0531C684.703 99.9913 683.59 101.132 682.974 102.551C681.018 107.076 685.617 116.355 690.381 118.332C694.165 120.301 698.469 121.426 703.049 121.661C703.473 121.686 703.642 121.161 703.443 120.923C702.088 119.338 700.938 117.611 699.995 115.766C702.429 114.294 704.777 112.665 707.003 110.905C711.588 107.281 709.71 102.722 707.653 99.2156Z" fill="white"/>
<defs>
<filter id="filter0_d_3994_9087" x="0" y="0.491211" width="250" height="257.749" filterUnits="userSpaceOnUse" color-interpolation-filters="sRGB">
<feFlood flood-opacity="0" result="BackgroundImageFix"/>
<feColorMatrix in="SourceAlpha" type="matrix" values="0 0 0 0 0 0 0 0 0 0 0 0 0 0 0 0 0 0 127 0" result="hardAlpha"/>
<feOffset dx="5" dy="10"/>
<feGaussianBlur stdDeviation="10"/>
<feComposite in2="hardAlpha" operator="out"/>
<feColorMatrix type="matrix" values="0 0 0 0 0 0 0 0 0 0 0 0 0 0 0 0 0 0 0.25 0"/>
<feBlend mode="normal" in2="BackgroundImageFix" result="effect1_dropShadow_3994_9087"/>
<feBlend mode="normal" in="SourceGraphic" in2="effect1_dropShadow_3994_9087" result="shape"/>
</filter>
</defs>
</svg>
