<?xml version="1.0" encoding="utf-8"?>
<!-- Generator: Adobe Illustrator 24.0.1, SVG Export Plug-In . SVG Version: 6.00 Build 0)  -->
<svg version="1.1" id="Capa_1" xmlns="http://www.w3.org/2000/svg" xmlns:xlink="http://www.w3.org/1999/xlink" x="0px" y="0px"
	 viewBox="0 0 316 375" style="enable-background:new 0 0 316 375;" xml:space="preserve">
<style type="text/css">
	.st0{clip-path:url(#SVGID_2_);}
	.st1{opacity:0.5;}
	.st2{fill:#DADADA;}
	.st3{fill:#3EC0F0;}
	.st4{fill:#FFFFFF;}
	.st5{fill:none;stroke:#1D1D1B;stroke-width:2;stroke-linecap:round;stroke-miterlimit:10;stroke-dasharray:6.06,6.06;}
	.st6{fill:none;stroke:#1D1D1B;stroke-width:2;stroke-linecap:round;stroke-miterlimit:10;}
</style>
<g>
	<g>
		<defs>
			<rect id="SVGID_1_" width="316" height="375"/>
		</defs>
		<clipPath id="SVGID_2_">
			<use xlink:href="#SVGID_1_"  style="overflow:visible;"/>
		</clipPath>
		<g class="st0">
			<g class="st1">
				<path class="st2" d="M73.1,304.6c1.7-2.4,5.2-3.4,7.2-4.9s1.6-1.2,5.3,0.5c4.1,1.9,8.9,1.8,12.7,4.3c0.2,0.1,0.4,0.2,0.5,0.4
					c0.6,0.4,1.2,0.8,1.7,1.3c1.5,1.3,2.8,2.8,3.5,4.7c2,5.9-4.8,17.2-11,19.3c-9,3.8-22.1-0.4-21.8-0.4c0,0-0.5-0.5,0.6-0.6
					c5.4-0.5,8.6-2.6,9.3-3.9c-2.9-2.1-5.7-3.4-8.4-5.8C67.2,314.5,70.1,308.9,73.1,304.6z"/>
			</g>
			<path class="st3" d="M72.3,304.9c1.5-2.4,2.8-5,4.7-6.6c1.8-1.6,4.2-2.2,7.8-0.8c4.1,1.5,8,3.4,11.8,5.6c0.2,0.1,0.4,0.2,0.5,0.3
				c0.6,0.3,1.2,0.7,1.7,1.1c1.5,1.1,2.9,2.5,3.5,4.3c2.2,5.5-3.8,17-9.7,19.5c-8.5,4.3-21.5,1.2-21.1,1.2c-0.4-0.5,0.1-0.4,0.6-0.5
				c4.6-0.7,7.6-1.8,8.5-3.8c-2.9-1.8-5.3-3.7-8-5.8C67.1,314.9,69.6,309.3,72.3,304.9z"/>
			<path d="M55.4,329.8c-24.7,11.1-6.6,36.6,1,37.5C60.1,365.8,66.9,340.5,55.4,329.8z"/>
			<path d="M62.8,328.8l6.9,1c0,0,13.3,20.7,0.8,39.4c-6.7-0.2-6.7-0.2-6.7-0.2C74.5,349.2,62.8,328.8,62.8,328.8z"/>
			<path d="M77.1,333.7c0,0,7.8,13.4,0.9,32.3l5.8-4.3l2.9-9.2l5-2.5l-4.3-2.8l-3.8-5.4L77.1,333.7z"/>
			<path d="M88.3,312.8c0.6-2.6,1.5-5.1,1.3-7.3c-0.2-2.2-1.3-4.2-4.5-5.7c-3.6-1.7-7.4-3.1-11.3-4.2c-0.2-0.1-0.4-0.1-0.5-0.1
				c-0.6-0.2-1.2-0.3-1.8-0.4c-1.7-0.3-3.5-0.3-5.1,0.4c-5.1,2.1-8.7,13.4-6.5,18.9c1.4,4.7,3.9,9.1,7.4,13c0.3,0.4,0.9,0.1,0.9-0.3
				c0.2-2.4,0.6-4.7,1.3-7c3.1,0.8,6.2,1.4,9.3,1.7C85,322.6,87.1,317.4,88.3,312.8z"/>
			<path class="st4" d="M86.8,311.6c0.6-2.6,1.5-5.1,1.3-7.3c-0.2-2.2-1.3-4.2-4.5-5.7c-3.6-1.7-7.4-3.1-11.3-4.2
				c-0.2-0.1-0.4-0.1-0.5-0.1c-0.6-0.2-1.2-0.3-1.8-0.4c-1.7-0.3-3.5-0.3-5.1,0.4c-5.1,2.1-8.7,13.4-6.5,18.9
				c1.4,4.7,3.9,9.1,7.4,13c0.3,0.4,0.9,0.1,0.9-0.3c0.2-2.4,0.6-4.8,1.3-7c3.1,0.8,6.2,1.4,9.3,1.7
				C83.6,321.5,85.7,316.2,86.8,311.6z"/>
			<path class="st5" d="M107.8,354.2c11,3.2,21.9,6.2,33.3,7.2c26.7,2.3,51.5-3.9,76.2-13.2c26-9.8,44-29.9,60.5-51.2
				c17.8-22.9,26.1-50.9,29.4-79.5c3.5-30.8-6.3-60.2-24-85.9c-7.6-11.1-15.9-21.8-27-29.6c-13.6-9.5-28.6-17.5-44.2-23
				c-26.6-9.3-56.6-11.3-83.9-6c-35.8,7-64.2,31.1-88.2,56.9"/>
			<path class="st6" d="M35.5,134.7c-1.4,1.6-2.9,3.2-4.3,4.8"/>
			<circle class="st4" cx="158" cy="214" r="101"/>
			<path d="M193.3,247.5V264h-72.9v-14.1l34.5-37c3.5-3.9,6.2-7.3,8.2-10.2c2-3,3.4-5.6,4.3-8c0.9-2.4,1.4-4.7,1.4-6.8
				c0-3.2-0.5-6-1.6-8.3s-2.7-4.1-4.8-5.4c-2.1-1.3-4.6-1.9-7.6-1.9c-3.2,0-6,0.8-8.4,2.3c-2.3,1.6-4.1,3.7-5.3,6.5
				s-1.8,5.9-1.8,9.4h-21.2c0-6.3,1.5-12.2,4.5-17.4c3-5.3,7.3-9.5,12.8-12.7s12.1-4.8,19.6-4.8s13.8,1.2,18.9,3.7
				c5.2,2.4,9.1,5.9,11.7,10.4c2.7,4.5,4,9.9,4,16.1c0,3.5-0.6,7-1.7,10.3c-1.1,3.3-2.7,6.6-4.8,10c-2.1,3.3-4.5,6.6-7.5,10
				c-2.9,3.4-6.2,6.9-9.7,10.5l-18.5,20.8L193.3,247.5L193.3,247.5z"/>
		</g>
	</g>
</g>
</svg>
