<?xml version="1.0" encoding="utf-8"?>
<!-- Generator: Adobe Illustrator 24.0.1, SVG Export Plug-In . SVG Version: 6.00 Build 0)  -->
<svg version="1.1" id="Capa_1" xmlns="http://www.w3.org/2000/svg" xmlns:xlink="http://www.w3.org/1999/xlink" x="0px" y="0px"
	 viewBox="0 0 316 375" style="enable-background:new 0 0 316 375;" xml:space="preserve">
<style type="text/css">
	.st0{clip-path:url(#SVGID_2_);}
	.st1{opacity:0.5;}
	.st2{fill:#DADADA;}
	.st3{fill:#3EC0F0;}
	.st4{fill:#FFFFFF;}
	.st5{fill:none;stroke:#1D1D1B;stroke-width:2;stroke-linecap:round;stroke-miterlimit:10;stroke-dasharray:6.06,6.06;}
	.st6{fill:none;stroke:#1D1D1B;stroke-width:2;stroke-linecap:round;stroke-miterlimit:10;}
</style>
<g>
	<g>
		<defs>
			<rect id="SVGID_1_" width="316" height="375"/>
		</defs>
		<clipPath id="SVGID_2_">
			<use xlink:href="#SVGID_1_"  style="overflow:visible;"/>
		</clipPath>
		<g class="st0">
			<g class="st1">
				<path class="st2" d="M251,291c-2.3-1.7-6-1.5-8.3-2.3c-2.3-0.7-1.9-0.6-4.9,2.2c-3.4,3.1-8,4.6-10.9,8.3
					c-0.1,0.2-0.3,0.3-0.4,0.5c-0.5,0.6-0.9,1.2-1.2,1.8c-1.1,1.7-1.9,3.6-1.9,5.5c-0.2,6.2,9.6,14.7,16.1,14.7
					c9.7,0.6,21-7.6,20.7-7.5c0,0,0.3-0.7-0.8-0.4c-5.3,1.3-9,0.4-10-0.7c2.2-2.9,4.5-5.1,6.3-8.2C259.5,298.4,255.1,294,251,291z"
					/>
			</g>
			<path class="st3" d="M251.9,291c-2.1-1.8-4.1-3.8-6.4-4.7c-2.2-0.9-4.6-0.7-7.7,1.8c-3.4,2.8-6.7,5.8-9.6,9.2
				c-0.1,0.2-0.3,0.3-0.4,0.5c-0.5,0.5-0.9,1.1-1.3,1.6c-1.1,1.6-2,3.3-2.1,5.2c-0.5,6,8.6,14.8,14.9,15.2
				c9.4,1.3,20.9-5.9,20.5-5.8c0.2-0.6-0.2-0.4-0.7-0.3c-4.6,0.8-7.8,0.8-9.3-0.8c2.3-2.7,4-5.2,5.9-8.1
				C259.7,298.7,255.7,294.2,251.9,291z"/>
			<path d="M275.3,309c26.8,2.4,17,32.5,10,35.8C281.2,344.6,267.4,322.9,275.3,309z"/>
			<path d="M267.9,310.5l-6.3,3.2c0,0-6.7,24,10.7,37.6c6.4-2.4,6.4-2.4,6.4-2.4C262.6,333.6,267.9,310.5,267.9,310.5z"/>
			<path d="M255.6,319.8c0,0-3.6,15.2,8.6,30.8l-6.8-2.2l-5.5-7.8l-5.5-0.8l3.2-4l2-6.4L255.6,319.8z"/>
			<path d="M238.9,303.7c-1.4-2.2-2.9-4.3-3.4-6.5c-0.5-2.1,0-4.4,2.7-6.9c3-2.8,6.2-5.4,9.6-7.7c0.2-0.1,0.3-0.2,0.5-0.3
				c0.5-0.4,1.1-0.7,1.6-1c1.6-0.8,3.3-1.4,5-1.3c5.5,0.3,12.2,9.9,11.7,15.8c0,4.9-1.1,9.9-3.2,14.8c-0.2,0.4-0.8,0.4-0.9,0
				c-0.9-2.2-2-4.3-3.3-6.2c-2.7,1.7-5.5,3.3-8.4,4.7C244.8,312,241.3,307.7,238.9,303.7z"/>
			<path class="st4" d="M240,302.1c-1.4-2.2-2.9-4.3-3.4-6.5c-0.5-2.1,0-4.4,2.7-6.9c3-2.8,6.2-5.4,9.6-7.7c0.2-0.1,0.3-0.2,0.5-0.3
				c0.5-0.4,1.1-0.7,1.6-1c1.6-0.8,3.3-1.4,5-1.3c5.5,0.3,12.2,9.9,11.7,15.8c0,4.9-1.1,9.9-3.2,14.8c-0.2,0.4-0.8,0.4-0.9,0
				c-0.9-2.2-2-4.3-3.3-6.2c-2.7,1.7-5.5,3.3-8.4,4.7C245.9,310.3,242.3,306,240,302.1z"/>
			<path class="st5" d="M277.1,124.4c-7.4-8.7-14.8-17.3-23.8-24.5c-20.9-16.7-45.1-25.3-70.7-31.2c-27.1-6.2-53.2,0.6-78.8,9.1
				c-27.5,9.2-49.9,27.9-68.5,50c-20,23.7-28.1,53.6-27.6,84.8c0.2,13.4,1.2,26.9,6.1,39.6c6,15.4,14.1,30.4,24.1,43.6
				c17,22.4,40.8,40.8,66.5,51.5c33.6,14,70.7,9.6,104.9,1.5"/>
			<path class="st6" d="M215.8,347.3c2.1-0.5,4.2-1.1,6.2-1.6"/>
			<circle class="st4" cx="158" cy="214" r="101"/>
			<path d="M141.9,201.5h11.3c3.6,0,6.6-0.6,8.9-1.8c2.3-1.3,4.1-3,5.2-5.3c1.2-2.3,1.8-5,1.8-8c0-2.7-0.5-5.2-1.6-7.3
				c-1-2.1-2.6-3.8-4.8-5c-2.1-1.2-4.9-1.8-8.1-1.8c-2.6,0-5,0.5-7.2,1.5s-4,2.5-5.3,4.3c-1.3,1.9-2,4.1-2,6.7H119
				c0-5.9,1.6-11,4.7-15.3c3.2-4.3,7.4-7.7,12.7-10.2c5.3-2.4,11.2-3.7,17.6-3.7c7.2,0,13.5,1.2,19,3.5c5.4,2.3,9.6,5.7,12.7,10.2
				c3,4.5,4.5,10.1,4.5,16.7c0,3.4-0.8,6.6-2.3,9.8c-1.6,3.1-3.8,6-6.7,8.5s-6.4,4.5-10.5,6s-8.8,2.2-14,2.2h-14.6v-11H141.9z
				 M141.9,217.6v-10.9h14.6c5.8,0,10.9,0.7,15.3,2c4.4,1.3,8.1,3.2,11.1,5.7c3,2.4,5.2,5.3,6.7,8.7c1.5,3.3,2.3,7,2.3,11.1
				c0,5-1,9.4-2.9,13.3c-1.9,3.9-4.6,7.1-8.1,9.8c-3.4,2.7-7.4,4.7-12,6.2c-4.6,1.4-9.6,2.1-15,2.1c-4.5,0-8.9-0.6-13.3-1.8
				c-4.3-1.3-8.2-3.1-11.7-5.6s-6.2-5.7-8.3-9.5c-2.1-3.9-3.1-8.4-3.1-13.7h21.2c0,2.7,0.7,5.2,2.1,7.3c1.4,2.1,3.2,3.8,5.6,5.1
				c2.4,1.2,5.2,1.8,8.1,1.8c3.4,0,6.2-0.6,8.6-1.8c2.4-1.3,4.3-3,5.6-5.3s2-5,2-8c0-3.9-0.7-7-2.1-9.4c-1.4-2.4-3.4-4.2-6.1-5.3
				c-2.6-1.1-5.8-1.7-9.4-1.7h-11.2V217.6z"/>
		</g>
	</g>
</g>
</svg>
