<?xml version="1.0" encoding="utf-8"?>
<!-- Generator: Adobe Illustrator 24.0.1, SVG Export Plug-In . SVG Version: 6.00 Build 0)  -->
<svg version="1.1" id="Capa_1" xmlns="http://www.w3.org/2000/svg" xmlns:xlink="http://www.w3.org/1999/xlink" x="0px" y="0px"
	 viewBox="0 0 316 375" style="enable-background:new 0 0 316 375;" xml:space="preserve">
<style type="text/css">
	.st0{clip-path:url(#SVGID_2_);}
	.st1{opacity:0.5;}
	.st2{fill:#DADADA;}
	.st3{fill:#3EC0F0;}
	.st4{fill:#FFFFFF;}
	.st5{fill:none;stroke:#1D1D1B;stroke-width:2;stroke-linecap:round;stroke-miterlimit:10;stroke-dasharray:6.06,6.06;}
	.st6{fill:none;stroke:#1D1D1B;stroke-width:2;stroke-linecap:round;stroke-miterlimit:10;}
</style>
<g>
	<g>
		<defs>
			<rect id="SVGID_1_" width="316" height="375"/>
		</defs>
		<clipPath id="SVGID_2_">
			<use xlink:href="#SVGID_1_"  style="overflow:visible;"/>
		</clipPath>
		<g class="st0">
			<g class="st1">
				<path class="st2" d="M131.4,20.6c1.7-2.4,5.2-3.4,7.2-4.9s1.6-1.2,5.3,0.5c4.1,1.9,8.9,1.8,12.7,4.3c0.2,0.1,0.4,0.2,0.5,0.4
					c0.6,0.4,1.2,0.8,1.7,1.3c1.5,1.3,2.8,2.8,3.5,4.7c2,5.9-4.8,17.2-11,19.3c-9,3.8-22.1-0.4-21.8-0.4c0,0-0.5-0.5,0.6-0.6
					c5.4-0.5,8.6-2.6,9.3-3.9c-2.9-2.1-5.7-3.4-8.4-5.8C125.6,30.5,128.5,24.9,131.4,20.6z"/>
			</g>
			<path class="st3" d="M130.7,20.9c1.5-2.4,2.8-5,4.7-6.6c1.8-1.6,4.2-2.2,7.8-0.8c4.1,1.5,8,3.4,11.8,5.6c0.2,0.1,0.4,0.2,0.5,0.3
				c0.6,0.3,1.2,0.7,1.7,1.1c1.5,1.1,2.9,2.5,3.5,4.3c2.2,5.5-3.8,17-9.7,19.5c-8.5,4.3-21.5,1.2-21.1,1.2c-0.4-0.5,0.1-0.4,0.6-0.5
				c4.6-0.7,7.6-1.8,8.5-3.8c-2.9-1.8-5.3-3.7-8-5.8C125.5,30.9,128,25.3,130.7,20.9z"/>
			<path d="M113.7,45.8c-24.7,11.1-6.6,36.6,1,37.5C118.5,81.8,125.3,56.5,113.7,45.8z"/>
			<path d="M121.2,44.8l6.9,1c0,0,13.3,20.7,0.8,39.4c-6.7-0.2-6.7-0.2-6.7-0.2C132.9,65.2,121.2,44.8,121.2,44.8z"/>
			<path d="M135.5,49.7c0,0,7.8,13.4,0.9,32.3l5.8-4.3l2.9-9.2l5-2.5l-4.3-2.8l-3.8-5.4L135.5,49.7z"/>
			<path d="M146.6,28.8c0.6-2.6,1.5-5.1,1.3-7.3s-1.3-4.2-4.5-5.7c-3.6-1.7-7.4-3.1-11.3-4.2c-0.2-0.1-0.4-0.1-0.5-0.1
				c-0.6-0.2-1.2-0.3-1.8-0.4c-1.8-0.3-3.5-0.3-5.1,0.4c-5.1,2.1-8.7,13.4-6.5,18.9c1.4,4.7,3.9,9.1,7.4,13c0.3,0.4,0.9,0.1,0.9-0.3
				c0.2-2.4,0.6-4.7,1.3-7c3.1,0.8,6.2,1.4,9.3,1.7C143.4,38.6,145.5,33.4,146.6,28.8z"/>
			<path class="st4" d="M145.2,27.6c0.6-2.6,1.5-5.1,1.3-7.3s-1.3-4.2-4.5-5.7c-3.6-1.7-7.4-3.1-11.3-4.2c-0.2-0.1-0.4-0.1-0.5-0.1
				c-0.6-0.2-1.2-0.3-1.8-0.4c-1.8-0.3-3.5-0.3-5.1,0.4c-5.1,2.1-8.7,13.4-6.5,18.9c1.4,4.7,3.9,9.1,7.4,13c0.3,0.4,0.9,0.1,0.9-0.3
				c0.2-2.4,0.6-4.7,1.3-7c3.1,0.8,6.2,1.4,9.3,1.7C142,37.5,144.1,32.2,145.2,27.6z"/>
			<path class="st5" d="M11,240.1c2.7,11.1,5.4,22.1,10.3,32.5c11.3,24.3,29,42.8,49.2,59.6c21.5,17.7,47.8,23.3,74.5,27.1
				c28.7,4.1,57.1-2.5,83.6-14c28.5-12.2,49.2-35.3,62.7-63.5c5.8-12.1,11-24.6,12.3-38.1c1.5-16.5,1-33.5-2-49.8
				c-5.1-27.7-18.2-54.7-36.4-75.8c-23.8-27.6-58.9-40.3-93.2-48.4"/>
			<path class="st6" d="M165.7,68.3c-2.1-0.5-4.2-0.9-6.3-1.3"/>
			<circle class="st4" cx="158" cy="214" r="101"/>
			<path d="M171.7,157.1V264h-21.1v-82.5l-25.3,8.1V173l44.2-15.7h2.2V157.1z"/>
		</g>
	</g>
</g>
</svg>
