<svg width="792" height="258" viewBox="0 0 792 258" fill="none" xmlns="http://www.w3.org/2000/svg">
<path d="M657.594 39.6995L656.954 41.8008L649.219 39.2844L649.86 37.1831L657.594 39.6995Z" fill="black"/>
<path d="M649.769 37.0059L657.766 39.607L657.043 41.9766L649.049 39.3754L649.769 37.0059ZM657.421 39.7906L649.947 37.3589L649.389 39.1918L656.863 41.6235L657.421 39.7906Z" fill="black"/>
<path d="M673.551 48.6742L672.415 50.541L665.548 46.09L666.684 44.2232L673.551 48.6742Z" fill="black"/>
<path d="M666.639 44.0247L673.738 48.6254L672.458 50.7295L665.358 46.1288L666.639 44.0247ZM673.361 48.7158L666.726 44.4144L665.736 46.0412L672.37 50.3426L673.361 48.7158Z" fill="black"/>
<path d="M687.215 60.5835L685.759 62.1934L679.831 56.4827L681.286 54.8729L687.215 60.5835Z" fill="black"/>
<path d="M681.282 54.672L687.41 60.5776L685.769 62.3936L679.64 56.488L681.282 54.672ZM687.024 60.5888L681.296 55.0703L680.026 56.4739L685.755 61.9925L687.024 60.5888Z" fill="black"/>
<path d="M698.559 74.7941L696.846 76.1074L692.009 69.3885L693.722 68.0752L698.559 74.7941Z" fill="black"/>
<path d="M693.749 67.8771L698.75 74.822L696.819 76.3047L691.817 69.3598L693.749 67.8771ZM698.367 74.7626L693.691 68.2725L692.198 69.4191L696.873 75.9093L698.367 74.7626Z" fill="black"/>
<path d="M707.105 91.04L705.177 91.9805L701.716 84.4115L703.645 83.471L707.105 91.04Z" fill="black"/>
<path d="M703.707 83.281L707.285 91.107L705.107 92.1689L701.529 84.3429L703.707 83.281ZM706.921 90.9715L703.578 83.6566L701.896 84.4757L705.239 91.7905L706.921 90.9715Z" fill="black"/>
<path d="M712.035 108.977L709.948 109.435L708.26 101.247L710.347 100.79L712.035 108.977Z" fill="black"/>
<path d="M710.454 100.622L712.199 109.087L709.844 109.604L708.098 101.139L710.454 100.622ZM711.874 108.869L710.243 100.958L708.424 101.36L710.054 109.27L711.874 108.869Z" fill="black"/>
<path d="M712.426 127.75L710.295 127.634L710.724 119.274L712.855 119.39L712.426 127.75Z" fill="black"/>
<path d="M710.595 119.124L713 119.257L712.557 127.899L710.152 127.767L710.595 119.124ZM712.713 119.523L710.855 119.421L710.439 127.498L712.297 127.6L712.713 119.523Z" fill="black"/>
<path d="M707.952 145.986L705.928 145.292L708.491 137.35L710.516 138.045L707.952 145.986Z" fill="black"/>
<path d="M708.403 137.169L710.688 137.954L708.039 146.164L705.755 145.379L708.403 137.169ZM710.34 138.132L708.575 137.525L706.1 145.198L707.864 145.805L710.34 138.132Z" fill="black"/>
<path d="M699.334 162.389L697.526 161.219L701.832 154.128L703.641 155.297L699.334 162.389Z" fill="black"/>
<path d="M701.787 153.93L703.828 155.249L699.377 162.581L697.336 161.262L701.787 153.93ZM703.451 155.342L701.875 154.323L697.714 161.177L699.289 162.197L703.451 155.342Z" fill="black"/>
<path d="M687.769 176.482L686.21 174.98L691.741 168.86L693.301 170.362L687.769 176.482Z" fill="black"/>
<path d="M691.733 168.659L693.492 170.353L687.774 176.68L686.015 174.985L691.733 168.659ZM693.106 170.37L691.747 169.06L686.401 174.974L687.761 176.284L693.106 170.37Z" fill="black"/>
<path d="M674.362 188.396L673.03 186.676L679.363 181.448L680.695 183.168L674.362 188.396Z" fill="black"/>
<path d="M679.382 181.25L680.887 183.19L674.34 188.593L672.835 186.653L679.382 181.25ZM680.501 183.148L679.338 181.648L673.218 186.698L674.381 188.197L680.501 183.148Z" fill="black"/>
<path d="M659.803 198.48L658.662 196.619L665.515 192.146L666.656 194.007L659.803 198.48Z" fill="black"/>
<path d="M665.558 191.95L666.844 194.052L659.758 198.678L658.472 196.576L665.558 191.95ZM666.466 193.961L665.473 192.337L658.85 196.661L659.843 198.285L666.466 193.961Z" fill="black"/>
<path d="M640.486 203.097L640.489 200.894L648.598 200.905L648.595 203.108L640.486 203.097Z" fill="black"/>
<path d="M640.352 200.753L648.734 200.765L648.732 203.25L640.349 203.239L640.352 200.753ZM648.458 201.047L640.623 201.036L640.62 202.956L648.455 202.968L648.458 201.047Z" fill="black"/>
<path d="M623.443 203.078L623.446 200.875L631.555 200.886L631.552 203.089L623.443 203.078Z" fill="black"/>
<path d="M623.309 200.734L631.691 200.745L631.689 203.23L623.306 203.219L623.309 200.734ZM631.418 201.028L623.582 201.016L623.58 202.937L631.415 202.948L631.418 201.028Z" fill="black"/>
<path d="M606.404 203.055L606.407 200.852L614.516 200.863L614.513 203.066L606.404 203.055Z" fill="black"/>
<path d="M606.27 200.711L614.652 200.723L614.65 203.208L606.267 203.197L606.27 200.711ZM614.379 201.005L606.543 200.994L606.541 202.914L614.376 202.926L614.379 201.005Z" fill="black"/>
<path d="M589.365 203.032L589.368 200.829L597.477 200.84L597.474 203.043L589.365 203.032Z" fill="black"/>
<path d="M589.231 200.688L597.613 200.699L597.611 203.185L589.228 203.173L589.231 200.688ZM597.337 200.982L589.502 200.97L589.499 202.891L597.334 202.902L597.337 200.982Z" fill="black"/>
<path d="M572.322 203.013L572.325 200.81L580.434 200.821L580.431 203.024L572.322 203.013Z" fill="black"/>
<path d="M572.188 200.669L580.57 200.681L580.568 203.166L572.185 203.155L572.188 200.669ZM580.297 200.96L572.461 200.949L572.459 202.869L580.294 202.881L580.297 200.96Z" fill="black"/>
<path d="M555.287 202.99L555.289 200.787L563.398 200.798L563.396 203.001L555.287 202.99Z" fill="black"/>
<path d="M555.153 200.646L563.535 200.657L563.532 203.143L555.15 203.131L555.153 200.646ZM563.262 200.94L555.426 200.928L555.423 202.849L563.259 202.86L563.262 200.94Z" fill="black"/>
<path d="M538.244 202.967L538.246 200.764L546.355 200.776L546.353 202.979L538.244 202.967Z" fill="black"/>
<path d="M538.11 200.623L546.492 200.635L546.489 203.12L538.107 203.109L538.11 200.623ZM546.219 200.917L538.383 200.906L538.38 202.826L546.216 202.838L546.219 200.917Z" fill="black"/>
<path d="M521.205 202.947L521.207 200.744L529.316 200.755L529.314 202.958L521.205 202.947Z" fill="black"/>
<path d="M521.071 200.603L529.453 200.614L529.45 203.1L521.068 203.088L521.071 200.603ZM529.18 200.894L521.344 200.883L521.341 202.803L529.177 202.814L529.18 200.894Z" fill="black"/>
<path d="M504.17 202.924L504.172 200.721L512.281 200.733L512.279 202.936L504.17 202.924Z" fill="black"/>
<path d="M504.035 200.581L512.418 200.592L512.415 203.077L504.033 203.066L504.035 200.581ZM512.142 200.874L504.306 200.863L504.304 202.783L512.139 202.795L512.142 200.874Z" fill="black"/>
<path d="M487.134 202.902L487.137 200.699L495.246 200.71L495.243 202.913L487.134 202.902Z" fill="black"/>
<path d="M487 200.558L495.383 200.569L495.38 203.055L486.998 203.043L487 200.558ZM495.109 200.852L487.274 200.84L487.271 202.761L495.107 202.772L495.109 200.852Z" fill="black"/>
<path d="M470.091 202.88L470.094 200.677L478.203 200.689L478.2 202.892L470.091 202.88Z" fill="black"/>
<path d="M469.957 200.537L478.34 200.548L478.337 203.033L469.955 203.022L469.957 200.537ZM478.064 200.83L470.228 200.819L470.225 202.739L478.061 202.751L478.064 200.83Z" fill="black"/>
<path d="M453.06 202.86L453.063 200.657L461.172 200.668L461.169 202.871L453.06 202.86Z" fill="black"/>
<path d="M452.926 200.516L461.309 200.527L461.306 203.013L452.923 203.001L452.926 200.516ZM461.035 200.807L453.2 200.796L453.197 202.716L461.032 202.727L461.035 200.807Z" fill="black"/>
<path d="M436.013 202.837L436.016 200.634L444.125 200.646L444.122 202.849L436.013 202.837Z" fill="black"/>
<path d="M435.879 200.494L444.262 200.505L444.259 202.99L435.876 202.979L435.879 200.494ZM443.988 200.787L436.153 200.776L436.15 202.697L443.985 202.708L443.988 200.787Z" fill="black"/>
<path d="M215.77 203.757L416.867 203.757L416.867 199.684L219.374 199.684C218.208 201.074 217.004 202.429 215.77 203.757Z" fill="black"/>
<path d="M219.307 199.542L417 199.542L417 203.897L215.444 203.897L215.665 203.657C216.899 202.33 218.111 200.963 219.263 199.59L219.307 199.542ZM416.726 199.825L219.433 199.825C218.357 201.101 217.233 202.375 216.087 203.615L416.726 203.615L416.726 199.825Z" fill="black"/>
<path d="M218.472 39.6562L634.867 39.6562L634.867 35.5837L213.821 35.5836C215.408 36.8969 216.959 38.2554 218.472 39.6562Z" fill="black"/>
<path d="M213.426 35.4428L635 35.4429L635 39.7979L218.416 39.7978L218.378 39.7611C216.873 38.3631 215.308 36.9962 213.732 35.6942L213.426 35.4428ZM634.726 35.7253L214.206 35.7252C215.669 36.9425 217.119 38.2162 218.52 39.5154L634.726 39.5154L634.726 35.7253Z" fill="black"/>
<rect x="658.789" y="124.359" width="81.9912" height="89.5713" transform="rotate(-43.7474 658.789 124.359)" fill="#F3E600"/>
<path d="M700.888 108.791C700.352 106.336 699.622 103.94 699.84 101.788C700.052 99.6706 701.187 97.7907 704.323 96.328C707.84 94.6842 711.511 93.3198 715.254 92.2618C715.428 92.2139 715.61 92.1636 715.783 92.1157C716.395 91.9135 716.982 91.794 717.538 91.7396C719.218 91.4695 720.904 91.4816 722.409 92.1164C727.205 94.1276 730.366 104.971 728.111 110.237C725.32 118.272 715.139 124.648 715.35 124.382C714.789 124.329 715.16 124.037 715.41 123.703C717.879 120.347 719.161 117.749 718.509 115.918C715.555 116.668 712.866 117.056 709.862 117.423C703.684 118.169 701.836 113.138 700.888 108.791Z" fill="#3EC0F0"/>
<path d="M725.44 122.784C750.033 120.745 745.22 149.708 739.321 153.882C735.706 154.387 720.169 136.73 725.44 122.784Z" fill="black"/>
<path d="M718.878 125.216L713.617 129.117C713.617 129.117 710.847 151.998 728.392 161.681C733.814 158.477 733.814 158.477 733.814 158.477C717.304 147.097 718.878 125.216 718.878 125.216Z" fill="black"/>
<path d="M708.992 135.488C708.992 135.488 707.803 149.933 720.94 162.238L714.46 161.356L708.459 155.116L703.35 155.299L705.746 151.106L706.733 144.958L708.992 135.488Z" fill="black"/>
<path d="M716.012 103.596C714.854 101.616 713.855 99.5498 712.378 98.2685C710.921 97.0147 709.003 96.5269 706.004 97.6492C702.64 98.9098 699.348 100.454 696.195 102.252C696.044 102.337 695.9 102.424 695.755 102.511C695.22 102.782 694.757 103.095 694.351 103.434C693.062 104.372 691.949 105.513 691.334 106.932C689.378 111.457 693.976 120.736 698.741 122.713C702.525 124.682 706.829 125.807 711.408 126.042C711.832 126.067 712.001 125.542 711.802 125.304C710.447 123.719 709.297 121.992 708.354 120.147C710.788 118.674 713.136 117.046 715.363 115.286C719.948 111.662 718.07 107.103 716.012 103.596Z" fill="black"/>
<path d="M714.379 103.793C713.221 101.813 712.223 99.746 710.745 98.4648C709.288 97.211 707.371 96.7232 704.371 97.8454C701.007 99.1061 697.715 100.65 694.562 102.449C694.412 102.533 694.267 102.62 694.122 102.708C693.587 102.978 693.124 103.291 692.718 103.63C691.429 104.568 690.316 105.709 689.701 107.128C687.745 111.653 692.344 120.932 697.108 122.909C700.892 124.878 705.196 126.003 709.776 126.238C710.199 126.263 710.368 125.738 710.169 125.5C708.814 123.915 707.665 122.188 706.721 120.343C709.155 118.871 711.503 117.242 713.73 115.482C718.315 111.858 716.437 107.299 714.379 103.793Z" fill="white"/>
<g filter="url(#filter0_d_3991_8997)">
<path d="M120 10.6738C62.0101 10.6738 15 59.1875 15 119.032C15 178.877 62.0101 227.391 120 227.391C177.99 227.391 225 178.877 225 119.032C225 59.1875 177.99 10.6738 120 10.6738Z" fill="white"/>
</g>
<path d="M131.992 70.5117V156H115.117V89.9648L94.8438 96.4102V83.1094L130.176 70.5117H131.992Z" fill="black"/>
<defs>
<filter id="filter0_d_3991_8997" x="0" y="0.673828" width="250" height="256.717" filterUnits="userSpaceOnUse" color-interpolation-filters="sRGB">
<feFlood flood-opacity="0" result="BackgroundImageFix"/>
<feColorMatrix in="SourceAlpha" type="matrix" values="0 0 0 0 0 0 0 0 0 0 0 0 0 0 0 0 0 0 127 0" result="hardAlpha"/>
<feOffset dx="5" dy="10"/>
<feGaussianBlur stdDeviation="10"/>
<feComposite in2="hardAlpha" operator="out"/>
<feColorMatrix type="matrix" values="0 0 0 0 0 0 0 0 0 0 0 0 0 0 0 0 0 0 0.25 0"/>
<feBlend mode="normal" in2="BackgroundImageFix" result="effect1_dropShadow_3991_8997"/>
<feBlend mode="normal" in="SourceGraphic" in2="effect1_dropShadow_3991_8997" result="shape"/>
</filter>
</defs>
</svg>
