<svg width="786" height="259" viewBox="0 0 786 259" fill="none" xmlns="http://www.w3.org/2000/svg">
<path d="M117.453 202.216L118.093 200.114L125.827 202.631L125.187 204.732L117.453 202.216Z" fill="black"/>
<path d="M125.278 204.909L117.281 202.308L118.004 199.938L125.998 202.54L125.278 204.909ZM117.626 202.124L125.1 204.556L125.658 202.723L118.184 200.292L117.626 202.124Z" fill="black"/>
<path d="M101.496 193.241L102.631 191.374L109.498 195.825L108.363 197.692L101.496 193.241Z" fill="black"/>
<path d="M108.408 197.89L101.309 193.29L102.589 191.186L109.688 195.786L108.408 197.89ZM101.686 193.199L108.321 197.501L109.311 195.874L102.677 191.572L101.686 193.199Z" fill="black"/>
<path d="M87.832 181.333L89.2875 179.724L95.216 185.434L93.7606 187.044L87.832 181.333Z" fill="black"/>
<path d="M93.765 187.244L87.6367 181.338L89.2782 179.522L95.4065 185.428L93.765 187.244ZM88.0225 181.327L93.7513 186.846L95.0207 185.442L89.2919 179.924L88.0225 181.327Z" fill="black"/>
<path d="M76.4883 167.121L78.2009 165.808L83.0378 172.527L81.3252 173.84L76.4883 167.121Z" fill="black"/>
<path d="M81.298 174.038L76.2969 167.093L78.2284 165.61L83.2295 172.555L81.298 174.038ZM76.6799 167.152L81.3554 173.643L82.8492 172.496L78.1737 166.006L76.6799 167.152Z" fill="black"/>
<path d="M67.9414 150.875L69.8702 149.935L73.331 157.504L71.4022 158.444L67.9414 150.875Z" fill="black"/>
<path d="M71.3402 158.634L67.7617 150.808L69.9394 149.746L73.5179 157.572L71.3402 158.634ZM68.1256 150.944L71.4688 158.258L73.1513 157.439L69.8081 150.125L68.1256 150.944Z" fill="black"/>
<path d="M63.0117 132.938L65.0992 132.48L66.7872 140.668L64.6997 141.126L63.0117 132.938Z" fill="black"/>
<path d="M64.5931 141.293L62.8477 132.828L65.2032 132.312L66.9487 140.776L64.5931 141.293ZM63.1732 133.046L64.8038 140.957L66.6231 140.556L64.9925 132.645L63.1732 133.046Z" fill="black"/>
<path d="M62.6209 114.165L64.7521 114.281L64.3226 122.641L62.1914 122.525L62.6209 114.165Z" fill="black"/>
<path d="M64.4517 122.791L62.0469 122.658L62.4901 114.016L64.8949 114.148L64.4517 122.791ZM62.3341 122.392L64.1918 122.494L64.6076 114.417L62.75 114.315L62.3341 122.392Z" fill="black"/>
<path d="M67.0947 95.9287L69.1192 96.6235L66.5558 104.565L64.5312 103.871L67.0947 95.9287Z" fill="black"/>
<path d="M66.6438 104.746L64.3594 103.961L67.0077 95.751L69.2921 96.5361L66.6438 104.746ZM64.7068 103.783L66.4714 104.39L68.9474 96.7169L67.1827 96.1097L64.7068 103.783Z" fill="black"/>
<path d="M75.7124 79.5264L77.5208 80.6956L73.2146 87.7873L71.4062 86.6181L75.7124 79.5264Z" fill="black"/>
<path d="M73.2597 87.9847L71.2187 86.6658L75.6699 79.334L77.7109 80.6529L73.2597 87.9847ZM71.5963 86.5726L73.1721 87.5921L77.3333 80.7376L75.7575 79.7181L71.5963 86.5726Z" fill="black"/>
<path d="M87.2779 65.4326L88.8373 66.9351L83.3055 73.0553L81.7461 71.5528L87.2779 65.4326Z" fill="black"/>
<path d="M83.3138 73.2562L81.5547 71.5617L87.2726 65.2354L89.0317 66.9299L83.3138 73.2562ZM81.9404 71.5447L83.3001 72.8552L88.6459 66.9412L87.2862 65.6307L81.9404 71.5447Z" fill="black"/>
<path d="M100.689 53.5195L102.021 55.2395L95.6878 60.4672L94.3555 58.7472L100.689 53.5195Z" fill="black"/>
<path d="M95.6688 60.6653L94.1641 58.7251L100.711 53.3223L102.216 55.2625L95.6688 60.6653ZM94.5498 58.7674L95.7125 60.2671L101.833 55.2173L100.67 53.7177L94.5498 58.7674Z" fill="black"/>
<path d="M115.244 43.4346L116.385 45.2958L109.531 49.7694L108.391 47.9082L115.244 43.4346Z" fill="black"/>
<path d="M109.489 49.9647L108.203 47.8634L115.289 43.2373L116.575 45.3386L109.489 49.9647ZM108.581 47.9538L109.574 49.5778L116.197 45.2538L115.204 43.6299L108.581 47.9538Z" fill="black"/>
<path d="M134.561 38.8179L134.558 41.0209L126.449 41.0096L126.452 38.8066L134.561 38.8179Z" fill="black"/>
<path d="M134.695 41.1617L126.312 41.1504L126.315 38.665L134.698 38.6763L134.695 41.1617ZM126.589 40.868L134.424 40.8793L134.427 38.9588L126.592 38.9475L126.589 40.868Z" fill="black"/>
<path d="M151.608 38.8375L151.605 41.0404L143.496 41.0291L143.499 38.8262L151.608 38.8375Z" fill="black"/>
<path d="M151.742 41.1812L143.359 41.1699L143.362 38.6846L151.745 38.6959L151.742 41.1812ZM143.633 40.8875L151.468 40.8988L151.471 38.9783L143.636 38.967L143.633 40.8875Z" fill="black"/>
<path d="M168.643 38.8599L168.64 41.0629L160.531 41.0516L160.534 38.8486L168.643 38.8599Z" fill="black"/>
<path d="M168.777 41.2037L160.395 41.1924L160.397 38.707L168.78 38.7183L168.777 41.2037ZM160.668 40.91L168.504 40.9213L168.506 39.0008L160.671 38.9895L160.668 40.91Z" fill="black"/>
<path d="M185.682 38.8834L185.679 41.0863L177.57 41.075L177.573 38.8721L185.682 38.8834Z" fill="black"/>
<path d="M185.816 41.2271L177.434 41.2158L177.436 38.7305L185.819 38.7418L185.816 41.2271ZM177.71 40.9334L185.545 40.9447L185.548 39.0242L177.713 39.0129L177.71 40.9334Z" fill="black"/>
<path d="M202.725 38.9019L202.722 41.1048L194.613 41.0935L194.616 38.8906L202.725 38.9019Z" fill="black"/>
<path d="M202.859 41.2457L194.477 41.2344L194.479 38.749L202.862 38.7603L202.859 41.2457ZM194.75 40.9548L202.586 40.9661L202.588 39.0456L194.753 39.0343L194.75 40.9548Z" fill="black"/>
<path d="M219.76 38.9254L219.757 41.1283L211.648 41.117L211.651 38.9141L219.76 38.9254Z" fill="black"/>
<path d="M219.894 41.2691L211.512 41.2578L211.514 38.7725L219.897 38.7838L219.894 41.2691ZM211.785 40.9754L219.621 40.9867L219.623 39.0662L211.788 39.0549L211.785 40.9754Z" fill="black"/>
<path d="M236.803 38.9478L236.8 41.1507L228.691 41.1394L228.694 38.9365L236.803 38.9478Z" fill="black"/>
<path d="M236.937 41.2916L228.555 41.2803L228.557 38.7949L236.94 38.8062L236.937 41.2916ZM228.828 40.9978L236.664 41.0091L236.666 39.0886L228.831 39.0773L228.828 40.9978Z" fill="black"/>
<path d="M253.842 38.9683L253.839 41.1712L245.73 41.16L245.733 38.957L253.842 38.9683Z" fill="black"/>
<path d="M253.976 41.3121L245.594 41.3008L245.596 38.8154L253.979 38.8267L253.976 41.3121ZM245.867 41.0212L253.703 41.0325L253.705 39.112L245.87 39.1007L245.867 41.0212Z" fill="black"/>
<path d="M270.881 38.9908L270.879 41.1937L262.77 41.1824L262.772 38.9795L270.881 38.9908Z" fill="black"/>
<path d="M271.015 41.3345L262.633 41.3232L262.636 38.8379L271.018 38.8492L271.015 41.3345ZM262.909 41.0408L270.745 41.0521L270.747 39.1316L262.912 39.1203L262.909 41.0408Z" fill="black"/>
<path d="M287.912 39.0133L287.91 41.2162L279.801 41.2049L279.804 39.002L287.912 39.0133Z" fill="black"/>
<path d="M288.047 41.357L279.664 41.3457L279.667 38.8604L288.049 38.8717L288.047 41.357ZM279.938 41.0633L287.773 41.0746L287.776 39.1541L279.94 39.1428L279.938 41.0633Z" fill="black"/>
<path d="M304.955 39.0347L304.953 41.2377L296.844 41.2264L296.846 39.0234L304.955 39.0347Z" fill="black"/>
<path d="M305.09 41.3785L296.707 41.3672L296.71 38.8818L305.092 38.8931L305.09 41.3785ZM296.983 41.0848L304.819 41.0961L304.821 39.1756L296.986 39.1643L296.983 41.0848Z" fill="black"/>
<path d="M321.991 39.0552L321.988 41.2582L313.879 41.2469L313.882 39.0439L321.991 39.0552Z" fill="black"/>
<path d="M322.125 41.399L313.742 41.3877L313.745 38.9023L322.127 38.9136L322.125 41.399ZM314.016 41.1081L321.851 41.1194L321.854 39.1989L314.019 39.1876L314.016 41.1081Z" fill="black"/>
<path d="M339.034 39.0777L339.031 41.2806L330.922 41.2693L330.925 39.0664L339.034 39.0777Z" fill="black"/>
<path d="M339.168 41.4214L330.785 41.4102L330.788 38.9248L339.17 38.9361L339.168 41.4214ZM331.059 41.1277L338.894 41.139L338.897 39.2185L331.061 39.2072L331.059 41.1277Z" fill="black"/>
<path d="M558.39 38.1582L357.293 38.1582L357.293 42.2308L554.787 42.2308C555.952 40.8413 557.156 39.4856 558.39 38.1582Z" fill="black"/>
<path d="M554.85 42.3726L357.156 42.3726L357.156 38.0176L558.713 38.0176L558.491 38.2577C557.257 39.5851 556.045 40.952 554.893 42.3246L554.85 42.3726ZM357.43 42.0902L554.724 42.0902C555.799 40.8136 556.923 39.5399 558.07 38.3L357.43 38.3L357.43 42.0902Z" fill="black"/>
<path d="M563.973 202.261L147.578 202.261L147.578 206.333L568.624 206.333C567.037 205.02 565.486 203.662 563.973 202.261Z" fill="black"/>
<path d="M569.019 206.474L147.445 206.474L147.445 202.119L564.029 202.119L564.067 202.156C565.572 203.554 567.137 204.921 568.713 206.223L569.019 206.474ZM147.719 206.192L568.24 206.192C566.776 204.975 565.326 203.701 563.925 202.402L147.719 202.402L147.719 206.192Z" fill="black"/>
<g filter="url(#filter0_d_3995_9088)">
<path d="M656 228.172C713.99 228.172 761 179.427 761 119.297C761 59.1676 713.99 10.4229 656 10.4229C598.01 10.4229 551 59.1676 551 119.297C551 179.427 598.01 228.172 656 228.172Z" fill="white"/>
</g>
<path d="M686.219 146.816V160H627.859V148.75L655.457 119.16C658.23 116.074 660.418 113.359 662.02 111.016C663.621 108.633 664.773 106.504 665.477 104.629C666.219 102.715 666.59 100.898 666.59 99.1797C666.59 96.6016 666.16 94.3945 665.301 92.5586C664.441 90.6836 663.172 89.2383 661.492 88.2227C659.852 87.207 657.82 86.6992 655.398 86.6992C652.82 86.6992 650.594 87.3242 648.719 88.5742C646.883 89.8242 645.477 91.5625 644.5 93.7891C643.562 96.0156 643.094 98.5352 643.094 101.348H626.16C626.16 96.2695 627.371 91.6211 629.793 87.4023C632.215 83.1445 635.633 79.7656 640.047 77.2656C644.461 74.7266 649.695 73.457 655.75 73.457C661.727 73.457 666.766 74.4336 670.867 76.3867C675.008 78.3008 678.133 81.0742 680.242 84.707C682.391 88.3008 683.465 92.5977 683.465 97.5977C683.465 100.41 683.016 103.164 682.117 105.859C681.219 108.516 679.93 111.172 678.25 113.828C676.609 116.445 674.617 119.102 672.273 121.797C669.93 124.492 667.332 127.285 664.48 130.176L649.656 146.816H686.219Z" fill="black"/>
<rect x="76.4883" y="69.001" width="85.8673" height="80.0819" transform="rotate(72.7703 76.4883 69.001)" fill="#F3E600"/>
<path d="M63.9024 103.57C65.6547 101.881 67.2471 100.06 69.1762 99.1533C71.0732 98.2597 73.2986 98.2559 76.3189 100.134C79.7087 102.238 82.9523 104.612 85.9805 107.202C86.1198 107.322 86.2661 107.449 86.4054 107.569C86.925 107.978 87.3606 108.407 87.7245 108.844C88.9116 110.109 89.8657 111.523 90.1938 113.1C91.2499 118.121 83.9643 126.244 78.2583 127.025C69.924 128.76 58.7535 123.486 59.0977 123.528C58.8219 123.033 59.2791 123.195 59.7019 123.235C63.9279 123.598 66.8399 123.355 68.0027 121.884C65.6842 119.798 63.8213 117.75 61.7957 115.427C57.6371 110.648 60.7989 106.56 63.9024 103.57Z" fill="#3EC0F0"/>
<path d="M46.9357 120.46C22.3248 115.956 26.9291 142.39 32.8047 146.767C36.4209 147.612 52.1105 133.51 46.9357 120.46Z" fill="black"/>
<path d="M53.7825 123.517L59.0072 127.573C59.0072 127.573 61.6083 148.305 44.0201 155.039C38.6296 151.588 38.6296 151.588 38.6296 151.588C55.1965 143.226 53.7825 123.517 53.7825 123.517Z" fill="black"/>
<path d="M63.9436 133.886C63.9436 133.886 65.0261 146.94 51.7767 156.517L58.2738 156.434L64.3306 151.506L69.4462 152.226L67.0782 148.213L66.135 142.605L63.9436 133.886Z" fill="black"/>
<path d="M76.7842 113.57C77.7825 111.602 78.9442 109.724 79.1736 107.843C79.3919 105.993 78.7046 104.146 76.0485 102.21C73.0685 100.041 69.8918 98.0743 66.5804 96.3523C66.4239 96.2694 66.2678 96.1927 66.1117 96.1159C65.5792 95.8068 65.0519 95.578 64.5353 95.4109C63.0118 94.8098 61.4195 94.458 59.8773 94.6621C54.9648 95.3183 49.8144 103.848 50.8805 108.824C51.393 112.977 52.9103 117.138 55.3321 121.079C55.5533 121.445 56.0899 121.321 56.1759 121.034C56.7301 119.102 57.5207 117.269 58.5288 115.549C61.1548 116.835 63.8627 117.971 66.6119 118.939C72.2717 120.933 75.0207 117.06 76.7842 113.57Z" fill="black"/>
<path d="M75.6631 112.31C76.6614 110.343 77.8231 108.464 78.0525 106.583C78.2708 104.733 77.5835 102.886 74.9275 100.951C71.9474 98.7811 68.7707 96.8145 65.4593 95.0925C65.3028 95.0096 65.1467 94.9329 64.9907 94.8562C64.4581 94.547 63.9308 94.3183 63.4143 94.1511C61.8907 93.55 60.2984 93.1982 58.7562 93.4023C53.8437 94.0585 48.6933 102.588 49.7594 107.564C50.2719 111.718 51.7892 115.878 54.211 119.819C54.4323 120.185 54.9688 120.061 55.0548 119.774C55.609 117.842 56.3996 116.009 57.4077 114.289C60.0337 115.575 62.7416 116.711 65.4908 117.679C71.1506 119.673 73.8996 115.8 75.6631 112.31Z" fill="white"/>
<defs>
<filter id="filter0_d_3995_9088" x="536" y="0.422852" width="250" height="257.749" filterUnits="userSpaceOnUse" color-interpolation-filters="sRGB">
<feFlood flood-opacity="0" result="BackgroundImageFix"/>
<feColorMatrix in="SourceAlpha" type="matrix" values="0 0 0 0 0 0 0 0 0 0 0 0 0 0 0 0 0 0 127 0" result="hardAlpha"/>
<feOffset dx="5" dy="10"/>
<feGaussianBlur stdDeviation="10"/>
<feComposite in2="hardAlpha" operator="out"/>
<feColorMatrix type="matrix" values="0 0 0 0 0 0 0 0 0 0 0 0 0 0 0 0 0 0 0.25 0"/>
<feBlend mode="normal" in2="BackgroundImageFix" result="effect1_dropShadow_3995_9088"/>
<feBlend mode="normal" in="SourceGraphic" in2="effect1_dropShadow_3995_9088" result="shape"/>
</filter>
</defs>
</svg>
