<svg width="190" height="190" viewBox="0 0 190 190" fill="none" xmlns="http://www.w3.org/2000/svg">
<g opacity="0.5">
<path d="M44.9836 127.131C45.9055 126.139 47.559 125.898 48.5615 125.335C49.564 124.773 49.3635 124.886 50.9403 125.891C52.6866 127.013 54.8753 127.264 56.4479 128.641C56.5326 128.699 56.6174 128.757 56.6504 128.855C56.8984 129.075 57.1464 129.295 57.3427 129.554C57.944 130.241 58.442 131.007 58.6423 131.919C59.1854 134.739 55.3921 139.485 52.4426 140.062C48.1146 141.244 42.4189 138.515 42.5553 138.533C42.5553 138.533 42.359 138.274 42.8653 138.296C45.3517 138.401 46.9371 137.639 47.336 137.088C46.1478 135.948 44.9554 135.181 43.8767 133.917C41.7318 131.298 43.398 128.917 44.9836 127.131Z" fill="#DADADA"/>
</g>
<path d="M44.6468 127.224C45.4778 126.22 46.2303 125.111 47.1936 124.497C48.1113 123.877 49.2398 123.751 50.7898 124.613C52.5609 125.552 54.2162 126.662 55.8075 127.902C55.8922 127.96 55.9769 128.018 56.0162 128.07C56.2704 128.244 56.5184 128.464 56.7209 128.678C57.3346 129.273 57.8843 130 58.0453 130.859C58.7042 133.51 55.2622 138.396 52.4243 139.175C48.2925 140.616 42.5741 138.396 42.7559 138.42C42.6051 138.167 42.8262 138.244 43.0598 138.229C45.1948 138.193 46.6271 137.875 47.1605 137.017C45.9537 136.015 44.9804 134.998 43.8831 133.871C41.6617 131.475 43.146 129.069 44.6468 127.224Z" fill="#3EC0F0"/>
<path d="M35.3708 137.558C23.4509 141.107 30.0978 153.881 33.4975 154.762C35.3184 154.311 39.9809 143.165 35.3708 137.558Z" fill="black"/>
<path d="M38.8438 137.564L41.919 138.448C41.919 138.448 46.6813 148.732 39.8369 156.508C36.8029 156.003 36.8029 156.003 36.8029 156.003C42.8972 147.612 38.8438 137.564 38.8438 137.564Z" fill="black"/>
<path d="M45.043 140.688C45.043 140.688 47.7577 147.295 43.447 155.509L46.3512 153.901L48.2409 149.874L50.6695 149.04L48.8882 147.495L47.4956 144.792L45.043 140.688Z" fill="black"/>
<path d="M51.3872 131.818C51.8214 130.667 52.3858 129.58 52.4315 128.562C52.4771 127.543 52.1011 126.561 50.7392 125.678C49.2079 124.679 47.567 123.804 45.862 123.06C45.7773 123.002 45.6863 122.99 45.6409 122.984C45.3805 122.855 45.1139 122.772 44.8473 122.69C44.0475 122.441 43.2745 122.336 42.5035 122.558C40.0543 123.203 37.7159 128.146 38.3748 130.796C38.7196 133.031 39.5831 135.197 40.9324 137.196C41.044 137.397 41.3354 137.297 41.3603 137.114C41.6002 136.03 41.9249 135.003 42.3859 133.995C43.7458 134.552 45.1181 135.017 46.509 135.346C49.3238 136.101 50.6015 133.853 51.3872 131.818Z" fill="black"/>
<path d="M50.8247 131.184C51.2589 130.032 51.8233 128.945 51.869 127.927C51.9146 126.909 51.5386 125.927 50.1767 125.043C48.6454 124.044 47.0045 123.169 45.2995 122.426C45.2148 122.367 45.1238 122.355 45.0784 122.349C44.818 122.22 44.5514 122.138 44.2848 122.055C43.4849 121.807 42.712 121.702 41.941 121.923C39.4918 122.568 37.1534 127.511 37.8123 130.161C38.1571 132.396 39.0206 134.562 40.3699 136.561C40.4815 136.763 40.7729 136.662 40.7978 136.48C41.0377 135.395 41.3623 134.368 41.8234 133.36C43.1833 133.917 44.5556 134.383 45.9465 134.711C48.7551 135.512 50.039 133.219 50.8247 131.184Z" fill="white"/>
<path d="M59.5821 153.327C64.2715 155.729 68.926 158.1 74.0292 159.526C85.9083 162.909 97.6752 162.32 109.596 160.351C122.22 158.2 132.051 150.739 141.372 142.596C151.396 133.849 157.589 121.985 161.5 109.308C165.765 95.7248 163.884 81.5739 158.065 68.3922C155.57 62.7336 152.756 57.1634 148.425 52.6485C143.104 47.1613 137.01 42.2192 130.413 38.3572C119.201 31.7948 105.839 28.2254 93.013 28.2052C76.2384 28.1765 61.2912 36.5619 48.192 46.0533" stroke="#1D1D1B" stroke-width="2" stroke-miterlimit="10" stroke-linecap="round" stroke-dasharray="6.06 6.06"/>
<path d="M94.8918 140.865C120.487 140.865 141.237 120.004 141.237 94.2704C141.237 68.5369 120.487 47.6758 94.8918 47.6758C69.2962 47.6758 48.5469 68.5369 48.5469 94.2704C48.5469 120.004 69.2962 140.865 94.8918 140.865Z" fill="white"/>
</svg>
