<svg width="38" height="36" viewBox="0 0 38 36" fill="none" xmlns="http://www.w3.org/2000/svg">
<path d="M6.12114 16.9275C6.38619 14.8306 6.48477 12.7228 7.27514 11.0856C8.05776 9.47926 9.50962 8.33451 12.4651 8.11568C15.7799 7.87219 19.1368 7.89231 22.4686 8.17851C22.6268 8.1908 22.7816 8.20788 22.9364 8.22495C23.4887 8.24497 23.996 8.32724 24.4639 8.45395C25.8992 8.74021 27.2582 9.26285 28.2964 10.2096C31.6 13.2302 31.0607 22.7373 27.7308 26.2202C25.2308 29.3187 21.983 31.9135 18.1775 33.8722C17.8267 34.0561 17.4927 33.6836 17.5754 33.4081C18.1513 31.565 18.5012 29.6825 18.6327 27.7806C16.0309 27.4898 13.4453 27.0357 10.9148 26.4247C5.70483 25.1679 5.64568 20.6432 6.12114 16.9275Z" fill="black"/>
<path d="M7.58793 16.4734C7.85298 14.3765 7.95157 12.2687 8.74193 10.6315C9.52456 9.02516 10.9764 7.88041 13.9319 7.66157C17.2467 7.41808 20.6036 7.4382 23.9354 7.7244C24.0936 7.73669 24.2484 7.75377 24.4032 7.77085C24.9554 7.79086 25.4628 7.87313 25.9307 7.99984C27.366 8.2861 28.725 8.80874 29.7631 9.75546C33.0668 12.7761 32.5275 22.2831 29.1976 25.766C26.6976 28.8646 23.4498 31.4594 19.6443 33.4181C19.2935 33.602 18.9595 33.2295 19.0422 32.954C19.6181 31.1109 19.968 29.2284 20.0995 27.3265C17.4977 27.0357 14.9121 26.5816 12.3816 25.9706C7.17162 24.7138 7.11247 20.1891 7.58793 16.4734Z" fill="#F3E600"/>
</svg>
